<?xml version="1.0" standalone="no"?>
<!DOCTYPE svg PUBLIC "-//W3C//DTD SVG 1.1//EN" "http://www.w3.org/Graphics/SVG/1.1/DTD/svg11.dtd" >
<!--
2013-9-30: Created.
-->
<svg>
<metadata>
Created by iconfont
</metadata>
<defs>

<font id="iconfont" horiz-adv-x="1024" >
  <font-face
    font-family="iconfont"
    font-weight="500"
    font-stretch="normal"
    units-per-em="1024"
    ascent="896"
    descent="-128"
  />
    <missing-glyph />
    
    <glyph glyph-name="pinpaixinxi" unicode="&#58888;" d="M318.464 325.63199999999995l132.096 0-2.048-135.168-128 0zM641.024 319.48800000000006l128 0 0-129.024-128 0 0 129.024zM448.512 640l192.512 0 0-129.024-192.512 0 0 129.024zM892.928 831.488q28.672 0 52.736-10.752t41.984-29.184 28.16-43.52 10.24-53.76l0-621.568q0-28.672-10.24-53.76t-28.16-43.52-41.984-29.184-52.736-10.752l-691.2 0q-28.672 0-53.76 10.752t-43.52 29.184-29.184 43.52-10.752 53.76l0 621.568q0 28.672 10.752 53.76t29.184 43.52 43.52 29.184 53.76 10.752l691.2 0zM512 66.55999999999995q-1.024 5.12-1.536 29.184t-0.512 56.832l0 71.68q0 37.888 0.512 71.168t1.024 57.344 1.536 30.208q-6.144-1.024-25.088-1.536t-45.056-1.024-55.296-0.512-55.808 0.512-47.104 1.024-27.648 1.536q1.024-5.12 1.536-28.672t1.024-56.832 0.512-71.68-0.512-72.704-1.024-59.392-1.536-31.232l61.44 0 2.048 64.512 128 0 2.048-60.416 61.44 0zM385.024 447.488q10.24 1.024 35.84 2.048t58.88 1.536 70.144 0.512 69.12-0.512 55.808-1.024 30.72-1.536q-1.024 5.12-1.536 24.576t-1.024 46.08-0.512 56.832 0.512 56.832 1.024 46.08 1.536 24.576q-7.168-1.024-31.232-1.536t-56.832-1.024-69.632-0.512l-70.656 0q-32.768 0-57.856 1.024t-34.304 2.048q1.024-4.096 1.536-23.04t0.512-45.568l0-58.368 0-57.344q0-27.648-0.512-47.104t-1.536-24.576zM832.512 69.63199999999995q-1.024 5.12-1.024 28.672l0 56.32 0 71.68 0 71.68q0 32.768 0.512 56.32t1.536 28.672q-7.168-1.024-26.624-1.536t-46.08-1.024-56.32-0.512l-55.296 0q-25.6 0-45.568 0.512t-26.112 1.536q1.024-5.12 1.536-29.184t0.512-56.832l0-71.68 0-72.704q0-33.792-0.512-58.368t-1.536-30.72l59.392 0 4.096 64.512 128 0 3.072-57.344 60.416 0z"  horiz-adv-x="1027" />

    
    <glyph glyph-name="guochenggenzhong" unicode="&#58905;" d="M512 530.285714c-80.786286 0-146.285714-65.499429-146.285714-146.285714s65.499429-146.285714 146.285714-146.285714 146.285714 65.499429 146.285714 146.285714S592.786286 530.285714 512 530.285714zM512 310.85714299999995c-40.321829 0-73.142857 32.821029-73.142857 73.142857s32.821029 73.142857 73.142857 73.142857 73.142857-32.821029 73.142857-73.142857S552.321829 310.85714299999995 512 310.85714299999995zM1024 420.571429l-75.000686 0C931.392 633.678629 761.678629 803.392 548.571429 820.999314L548.571429 896l-73.142857 0 0-75.000686C262.357943 803.392 92.642743 633.678629 75.000686 420.571429L0 420.571429l0-73.142857 75.000686 0C92.642743 134.321371 262.357943-35.39200000000005 475.428571-52.99931400000003L475.428571-128l73.142857 0 0 75.000686C761.678629-35.39200000000005 931.392 134.321371 948.999314 347.42857100000003L1024 347.42857100000003 1024 420.571429zM548.571429 20.143543000000022L548.571429 91.42857100000003l-73.142857 0 0-71.285029C302.928457 37.35771399999999 165.357714 174.92845699999998 148.143543 347.42857100000003L219.428571 347.42857100000003l0 73.142857L148.143543 420.571429C165.357714 593.071543 302.928457 730.642286 475.428571 747.856457L475.428571 676.571429l73.142857 0L548.571429 747.856457C721.071543 730.642286 858.642286 593.071543 875.856457 420.571429L804.571429 420.571429l0-73.142857 71.285029 0C858.642286 174.92845699999998 721.071543 37.35771399999999 548.571429 20.143543000000022z"  horiz-adv-x="1024" />

    
    <glyph glyph-name="kucunliushuichaxun" unicode="&#58928;" d="M94.016 709.984l0-650.016 844 0L938.016 709.984 94.016 709.984zM890.016 103.71199999999999L141.984 103.71199999999999 141.984 657.568l748.032 0L890.016 103.71199999999999zM316.864 454.144L220.992 454.144l0 83.808 95.872 0L316.864 454.144zM820.256 486.304L348.768 486.304l0 17.216 471.456 0L820.224 486.304zM316.864 322.336L220.992 322.336l0 83.776 95.872 0L316.864 322.336zM820.256 354.592L348.768 354.592l0 17.088 471.456 0L820.224 354.592zM316.864 190.43200000000002L220.992 190.43200000000002l0 83.936 95.872 0L316.864 190.43200000000002zM820.256 222.784L348.768 222.784l0 17.088 471.456 0L820.224 222.784z"  horiz-adv-x="1024" />

    
    <glyph glyph-name="tishengjiguanli" unicode="&#58906;" d="M78.707085 803.760203l113.957425 0 0-838.845023-113.957425 0 0 838.845023ZM830.715367 803.760203l111.669312 0 0-838.845023-111.669312 0 0 838.845023ZM775.966439 655.990694L524.476661 655.990694c-0.048095-184.386474-1.654686-370.294604-3.290953-554.673915L775.966439 101.316779c11.319813 0 20.509103 9.162684 20.509103 20.455891L796.475542 635.5429899999999C796.475542 646.838244 787.285229 655.990694 775.966439 655.990694zM258.25332 655.990694c-11.332093 0-20.49887-9.151427-20.49887-20.446681l0-513.77032c0-11.293207 9.166777-20.455891 20.49887-20.455891l253.400291 0c1.636267 184.379311 3.243881 370.287441 3.290953 554.673915L258.25332 655.991718zM438.773743 769.66671L438.773743 726.486258 500.290819 769.66671 500.290819 684.4160939999999 539.026028 684.4160939999999 539.026028 769.66671 600.55436 727.035774 600.55436 773.072273 519.677355 832.184579ZM436.471304 1.4615370000000212L436.562379 44.64710500000001 497.998613 1.328506999999945 498.177692 86.59344999999996 536.904715 86.50032899999997 536.737916 1.23743300000001 598.344019 43.746595999999954 598.253968-2.3032060000000456 517.237793-61.23438699999997Z"  horiz-adv-x="1024" />

    
    <glyph glyph-name="chezaizhongduan" unicode="&#58933;" d="M832.216859 896L191.783141 896C142.014676 896 101.654963 855.640287 101.654963 805.871822l0-843.764931c0-49.789752 40.359713-90.106891 90.128178-90.106891L832.216859-128c49.768465 0 90.106891 40.338426 90.106891 90.106891L922.32375 805.871822C922.345037 855.640287 881.985324 896 832.216859 896zM819.678952-25.355201999999963L204.342334-25.355201999999963 204.342334 793.333915l615.357905 0L819.700239-25.355201999999963zM510.275772 54.34245899999996m-51.343686 0a2.412 2.412 0 1 1 102.687371 0 2.412 2.412 0 1 1-102.687371 0ZM768.058539 126.95162700000003L255.835028 126.95162700000003 255.835028 742.373392l512.223511 0L768.058539 126.95162700000003zM358.501112 229.61771099999999l307.125496 0L665.626608 639.941461 358.501112 639.941461 358.501112 229.61771099999999z"  horiz-adv-x="1024" />

    
    <glyph glyph-name="yisunyihaojian" unicode="&#58902;" d="M658.944 507.2384c0 0-110.08 132.9408-262.144 18.688-115.6608-97.2544-47.4624-233.6256-35.2256-246.0416 12.2624-12.3392 195.7632-27.8528 198.016 116.608-45.0048-52.224-71.0912-97.6128-189.2096-77.8752 0 0-54.528 189.6704 163.9936 228.5568 9.8304-0.4608 27.4432-9.2672 27.4432-9.2672s-106.624-21.5808-105.2928-116.3776C471.424 438.7072 521.7792 525.8496 658.944 507.2384zM378.0096 261.7088c0 0 110.0544-132.9408 262.1184-18.6624 115.6864 97.2032 47.4624 233.6 35.2 245.9904-12.2368 12.3648-195.7376 27.8528-197.9904-116.6592 45.0048 52.224 71.0912 97.6384 189.2096 77.9008 0 0 54.528-189.6448-163.9936-228.5312-9.8304 0.4096-27.4432 9.2416-27.4432 9.2416s106.624 21.6064 105.3184 116.4032C565.5296 330.1888 515.1744 243.09760000000006 378.0096 261.7088zM904.3456 448.3328l-38.6048 0c-17.6896 0-36.4288 13.7984-41.728 30.6944l-22.144 53.8112c-8.3456 15.616-4.9152 38.6048 7.552 51.1232l27.3664 27.3152c12.5184 12.544 12.5184 32.9984 0 45.5168l-45.5168 45.4656c-12.5184 12.4928-32.9728 12.4928-45.4912 0l-27.392-27.3664c-12.4416-12.4928-35.4816-15.8976-51.0976-7.552l-53.7856 22.144c-16.8192 5.248-30.72 24.0128-30.72 41.7024L582.784 769.8176c0 17.6384-14.4896 32.1792-32.128 32.1792l-64.3072 0c-17.6896 0-32.2048-14.5152-32.2048-32.1792l0-38.6048c0-17.6896-13.7728-36.4544-30.6944-41.7024l-53.8368-22.144c-15.616-8.3456-38.5792-4.9664-51.0208 7.552l-27.4688 27.3664c-12.4928 12.4928-32.9472 12.4928-45.44 0L200.2176 656.8192c-12.5184-12.5184-12.5184-32.9728 0-45.4912l27.2896-27.3408c12.544-12.5184 15.9488-35.5072 7.5776-51.1232l-22.1696-53.8368c-5.2224-16.896-23.9616-30.7456-41.7024-30.7456l-38.5792 0.0768c-17.664 0-32.1792-14.4896-32.1792-32.1792l0-64.256c0-17.6896 14.4896-32.2048 32.1792-32.2048l38.5792 0c17.7408-0.0512 36.4288-13.9008 41.6512-30.7456l22.2208-53.8624c8.32-15.5904 4.9152-38.656-7.5776-51.0976l-27.3664-27.3408c-12.4416-12.4928-12.4416-32.9472 0-45.4912l45.5168-45.4912c12.4928-12.4928 32.9472-12.4928 45.44 0l27.4176 27.392c12.4416 12.4416 35.4304 15.8464 50.944 7.4496l53.9392-22.144c16.9216-5.248 30.6944-24.0128 30.6944-41.7536l0-38.4512c0-17.6384 14.4384-32.1536 32.2048-32.1536l64.3072 0c17.6128 0 32.128 14.4896 32.128 32.1536L582.7328 36.60799999999995c0 17.7408 13.9008 36.5056 30.72 41.7536l53.888 22.144c15.5648 8.3968 38.6048 4.992 51.072-7.4496l27.2896-27.392c12.5184-12.4928 32.9728-12.4928 45.4912 0l45.5168 45.4912c12.5184 12.544 12.5184 32.9984 0 45.4912l-27.3664 27.3408c-12.4672 12.4416-15.8976 35.5072-7.552 51.0976l22.144 53.8624c5.2992 16.8448 24.064 30.6944 41.728 30.6944l38.6048 0c17.6384 0 32.1024 14.4384 32.1024 32.1536l0 64.3584C936.448 433.8432 922.0096 448.3328 904.3456 448.3328M800.7424 384.0768c0-155.9296-126.3616-282.1888-282.1632-282.1888-155.904 0-282.24 126.2592-282.24 282.1888 0 155.776 126.3616 282.1376 282.24 282.1376C674.4064 666.2144000000001 800.7424 539.8528 800.7424 384.0768"  horiz-adv-x="1024" />

    
    <glyph glyph-name="biaoqian" unicode="&#59108;" d="M469.333333 640l-42.666667 0 0-213.333333 42.666667 0L469.333333 640zM256 640l-42.666667 0 0-213.333333 42.666667 0L256 640zM384 640l-85.333333 0 0-213.333333 85.333333 0L384 640zM640 640l-42.666667 0 0-213.333333 42.666667 0L640 640zM554.666667 640l-42.666667 0 0-213.333333 42.666667 0L554.666667 640zM704 725.333333L149.333333 725.333333C136.533333 725.333333 128 716.8 128 704l0-768c0-12.8 8.533333-21.333333 21.333333-21.333333 6.4 0 10.666667 2.133333 14.933333 6.4l89.6 72.533333 72.533333-72.533333c4.266667-4.266667 8.533333-6.4 14.933333-6.4s10.666667 2.133333 14.933333 6.4l70.4 70.4 70.4-70.4c4.266667-4.266667 8.533333-6.4 14.933333-6.4s10.666667 2.133333 14.933333 6.4l72.533333 72.533333 89.6-72.533333c4.266667-4.266667 8.533333-6.4 14.933333-6.4 12.8 0 21.333333 8.533333 21.333333 21.333333L725.333333 704C725.333333 716.8 716.8 725.333333 704 725.333333zM682.666667-19.200000000000045l-70.4 55.466667C608 40.53333299999997 603.733333 42.66666699999996 597.333333 42.66666699999996c-6.4 0-10.666667-2.133333-14.933333-6.4L512-34.13333299999999l-70.4 70.4C437.333333 40.53333299999997 433.066667 42.66666699999996 426.666667 42.66666699999996c-6.4 0-10.666667-2.133333-14.933333-6.4L341.333333-34.13333299999999l-70.4 70.4C266.666667 40.53333299999997 262.4 42.66666699999996 256 42.66666699999996c-6.4 0-10.666667-2.133333-14.933333-6.4L170.666667-19.200000000000045 170.666667 682.666667l512 0L682.666667-19.200000000000045zM426.666667 341.33333300000004L213.333333 341.33333300000004l0-42.666667 213.333333 0L426.666667 341.33333300000004zM874.666667 853.333333L320 853.333333c-12.8 0-21.333333-8.533333-21.333333-21.333333l0-64 42.666667 0L341.333333 810.666667l512 0 0-701.866667-70.4 55.466667C778.666667 168.53333299999997 774.4 170.66666699999996 768 170.66666699999996l0-51.2 2.133333 2.133333 89.6-72.533333c4.266667-4.266667 8.533333-6.4 14.933333-6.4 12.8 0 21.333333 8.533333 21.333333 21.333333L896 832C896 844.8 887.466667 853.333333 874.666667 853.333333zM640 256L213.333333 256l0-42.666667 426.666667 0L640 256zM512 170.66666699999996L213.333333 170.66666699999996l0-42.666667 298.666667 0L512 170.66666699999996z"  horiz-adv-x="1024" />

    
    <glyph glyph-name="home" unicode="&#58890;" d="M865.382-62.85h-259.409c-9.89 0-17.908 8.018-17.908 17.908v243.895h-151.449v-243.895c0-9.89-8.018-17.908-17.908-17.908h-261.455c-9.89 0-17.908 8.018-17.908 17.908v467.487l-57.457 0c-7.47 0-14.155 4.637-16.773 11.633-2.618 6.996-0.617 14.882 5.018 19.786l429.428 373.619c6.757 5.879 16.817 5.861 23.553-0.039l101.278-88.704-0 75.232c0 9.89 8.018 17.908 17.908 17.908h148.72c9.89 0 17.908-8.018 17.908-17.908v-235.132l143.791-124.494c4.103-3.282 6.731-8.331 6.731-13.993 0-9.89-8.019-17.908-17.908-17.908-0.009 0-0.015 0-0.021 0h-58.232v-467.487c0-9.89-8.018-17.908-17.908-17.908zM623.881-27.034h223.593v467.487c0 9.89 8.018 17.908 17.908 17.908h28.098l-114.181 98.858c-3.928 3.401-6.186 8.342-6.186 13.538v225.408h-112.904v-96.815c0-7.028-4.112-13.406-10.511-16.309-6.4-2.901-13.907-1.792-19.195 2.838l-119.224 104.423-381.523-331.94h27.499c9.89 0 17.908-8.018 17.908-17.908v-467.487h225.639v243.895c0 9.89 8.018 17.908 17.908 17.908h187.265c9.89 0 17.908-8.018 17.908-17.908l0-243.895z"  horiz-adv-x="1024" />

    
    <glyph glyph-name="tongjifenxi" unicode="&#58941;" d="M490.6496-76.46720000000005c-59.9808 0-124.7488 13.0048-192.512 38.656-5.1968 2.3552-325.504 159.5648-216.0128 528.3072 0.2816 0.896 0.5888 1.7664 0.9472 2.6368 4.1472 9.8816 104.704 242.304 361.8304 273.6128 7.3728 0.9472 14.592-1.3824 20.0704-6.2464S473.6 748.6464 473.6 741.3248l0-413.8752 405.3248 0c7.8336 0 15.232-3.584 20.0704-9.7024s6.6304-14.1568 4.8384-21.76C902.9376 292.27520000000004 812.2624-76.46720000000005 490.6496-76.46720000000005zM130.7648 474.4192c-95.8976-326.144 175.7952-459.648 187.4176-465.152 60.032-22.6304 118.7072-34.5344 172.4416-34.5344 232.064 0 326.5024 218.112 354.1248 301.5424L448 276.27520000000004c-14.1568 0-25.6 11.4688-25.6 25.6L422.4 711.3216C223.5648 671.8720000000001 138.0096 490.5216 130.7648 474.4192zM937.0368 419.2c-0.128 0-0.3584 0-0.512 0L569.6 419.2c-14.1568 0-25.6 11.4688-25.6 25.6L544 807.4752c0 7.0912 2.944 13.8752 8.1152 18.688 5.1456 4.864 12.0064 7.424 19.2 6.8352C574.6688 832.768 907.2384 806.4 961.1008 453.5296c0.9984-2.7136 1.536-5.6576 1.536-8.7296C962.6368 430.6688 951.168 419.2 937.0368 419.2zM595.2 470.4l310.9376 0C858.2656 705.4336000000001 666.9312 764.0576 595.2 777.8816L595.2 470.4z"  horiz-adv-x="1024" />

    
    <glyph glyph-name="chukutongji" unicode="&#59084;" d="M916.659785 7.30154600000003L104.554776 7.30154600000003c-23.223934 0-42.006719 18.806321-42.006719 42.007743L62.548056 721.369727c0 23.199375 18.782785 41.99444 42.006719 41.99444 23.176862 0 42.006719-18.794042 42.006719-41.99444l0-532.050662 0-98.005105 770.099313 0c23.176862 0 42.007743-18.804275 42.007743-42.004673C958.666504 26.107867000000056 939.836647 7.30154600000003 916.659785 7.30154600000003M818.626028 133.31761100000006l-84.013439 0c-23.176862 0-42.007743 18.795065-42.007743 41.993416l0 294.02657c0 23.212678 18.829857 42.004673 42.007743 42.004673l84.013439 0c23.224957 0 42.008766-18.795065 42.008766-42.004673l0-294.02657C860.63377 152.11267599999996 841.852008 133.31761100000006 818.626028 133.31761100000006M580.602959 133.31761100000006l-84.013439 0c-23.200398 0-42.007743 18.795065-42.007743 41.993416L454.581778 637.358335c0 23.200398 18.807345 42.005696 42.007743 42.005696l84.013439 0c23.199375 0 42.006719-18.805298 42.006719-42.005696l0-462.046285C622.609679 152.11267599999996 603.803357 133.31761100000006 580.602959 133.31761100000006M342.578868 133.31761100000006l-84.013439 0c-23.223934 0-42.006719 18.795065-42.006719 41.993416l0 84.012416c0 23.198352 18.782785 42.004673 42.006719 42.004673l84.013439 0c23.200398 0 42.007743-18.806321 42.007743-42.004673l0-84.012416C384.585587 152.11267599999996 365.779266 133.31761100000006 342.578868 133.31761100000006"  horiz-adv-x="1024" />

    
    <glyph glyph-name="rukutongji" unicode="&#59085;" d="M92.161024-63.99897599999997l839.68 0c15.552512 0 28.16 12.608512 28.16 28.16s-12.608512 28.16-28.16 28.16l-811.52 0 0 811.52c0 15.552512-12.608512 28.16-28.16 28.16s-28.16-12.608512-28.16-28.16l0-839.68C64.001024-51.39148799999998 76.608512-63.99897599999997 92.161024-63.99897599999997zM227.963904 155.16569600000003c32.945152 0 59.646976 30.339072 59.646976 67.757056 0 9.02656-1.56672 17.634304-4.386816 25.509888l117.758976 153.7536c5.638144-2.00704 11.634688-3.09248 17.854464-3.09248 17.381376 0 33.01888 8.449024 43.91936 21.921792l111.181824-63.333376c0.359424-37.067776 26.919936-67.002368 59.629568-67.002368 32.945152 0 59.648 30.340096 59.648 67.75808 0 1.2544-0.034816 2.496512-0.094208 3.73248l154.882048 151.143424c7.387136-3.723264 15.553536-5.807104 24.154112-5.807104 32.946176 0 59.648 30.332928 59.648 67.75808 0 37.419008-26.701824 67.757056-59.648 67.757056-32.932864 0-59.646976-30.338048-59.646976-67.757056 0-7.71072 1.149952-15.112192 3.238912-22.017024l-145.00864-141.837312c-10.196992 9.245696-23.110656 14.78656-37.173248 14.78656-16.21504 0-30.912512-7.364608-41.665536-19.29728l-113.573888 64.602112c-2.105344 35.248128-27.923456 63.108096-59.491328 63.108096-32.934912 0-59.648-30.339072-59.648-67.75808 0-10.267648 2.0224-19.995648 5.62176-28.717056L248.922112 286.36876800000005c-6.520832 2.78016-13.581312 4.312064-20.958208 4.312064-32.934912 0-59.648-30.338048-59.648-67.75808C168.315904 185.504768 195.028992 155.16569600000003 227.963904 155.16569600000003z"  horiz-adv-x="1024" />

    
    <glyph glyph-name="loucengxinxi" unicode="&#58936;" d="M786.625 474.312l161.5 90.469L516.719 842.219 75.844 555.094l164.75-87.219-164.75-93.656L240.594 287l-164.75-93.688L517.188-74.25 948.125 203l-161.5 90.438 161.5 90.438L786.625 474.312 786.625 474.312zM516.938 781.406L839.75 564.781 516.469 347.875 185.875 556.75 516.938 781.406 516.938 781.406zM296.063 438.531l221.125-150.969L732.5 444l107.25-60.125L516.469 167 185.875 375.875 296.063 438.531 296.063 438.531zM839.75 203L516.469-13.937999999999988 185.875 195l110.188 62.625 221.125-150.938L732.5 263.125 839.75 203 839.75 203z"  horiz-adv-x="1024" />

    
    <glyph glyph-name="shujufenlei" unicode="&#58963;" d="M922.0099-127.59322899999995L616.712339-127.59322899999995C562.298845-127.59322899999995 518.023345-83.16127800000004 518.023345-28.52875400000005L518.023345 277.73880099999997C518.023345 332.37132599999995 562.298845 376.77198599999997 616.712339 376.77198599999997L922.0099 376.77198599999997C976.454684 376.77198599999997 1020.761474 332.37132599999995 1020.761474 277.73880099999997L1020.761474-28.52875400000005C1020.761474-83.16127800000004 976.454684-127.59322899999995 922.0099-127.59322899999995ZM971.823749 277.73880099999997C971.823749 305.305384 949.482613 327.70910000000003 922.0099 327.70910000000003L616.712339 327.70910000000003C589.270916 327.70910000000003 566.929781 305.305384 566.929781 277.73880099999997L566.929781-28.52875400000005C566.929781-56.09533699999997 589.270916-78.499053 616.712339-78.499053L922.0099-78.499053C949.482613-78.499053 971.823749-56.09533699999997 971.823749-28.52875400000005L971.823749 277.73880099999997ZM922.0099 391.603496L616.712339 391.603496C562.298845 391.603496 518.023345 436.035446 518.023345 490.66797L518.023345 796.935525C518.023345 851.53676 562.298845 895.96871 616.712339 895.96871L922.0099 895.96871C976.454684 895.96871 1020.761474 851.53676 1020.761474 796.935525L1020.761474 490.66797C1020.761474 436.035446 976.454684 391.603496 922.0099 391.603496ZM971.823749 796.935525C971.823749 824.470818 949.482613 846.874534 922.0099 846.874534L616.712339 846.874534C589.270916 846.874534 566.929781 824.470818 566.929781 796.935525L566.929781 490.66797C566.929781 463.101387 589.270916 440.697672 616.712339 440.697672L922.0099 440.697672C949.482613 440.697672 971.823749 463.101387 971.823749 490.66797L971.823749 796.935525ZM407.03734-127.59322899999995L101.739779-127.59322899999995C47.326285-127.59322899999995 3.050785-83.16127800000004 3.050785-28.52875400000005L3.050785 277.73880099999997C3.050785 332.37132599999995 47.326285 376.77198599999997 101.739779 376.77198599999997L407.03734 376.77198599999997C461.482124 376.77198599999997 505.788914 332.37132599999995 505.788914 277.73880099999997L505.788914-28.52875400000005C505.788914-83.16127800000004 461.482124-127.59322899999995 407.03734-127.59322899999995ZM456.851189 277.73880099999997C456.851189 305.305384 434.510053 327.70910000000003 407.03734 327.70910000000003L101.739779 327.70910000000003C74.298356 327.70910000000003 51.957221 305.305384 51.957221 277.73880099999997L51.957221-28.52875400000005C51.957221-56.09533699999997 74.298356-78.499053 101.739779-78.499053L407.03734-78.499053C434.510053-78.499053 456.851189-56.09533699999997 456.851189-28.52875400000005L456.851189 277.73880099999997ZM407.03734 391.603496L101.739779 391.603496C47.326285 391.603496 3.050785 436.035446 3.050785 490.66797L3.050785 796.935525C3.050785 851.53676 47.326285 895.96871 101.739779 895.96871L407.03734 895.96871C461.482124 895.96871 505.788914 851.53676 505.788914 796.935525L505.788914 490.66797C505.788914 436.035446 461.482124 391.603496 407.03734 391.603496ZM456.851189 796.935525C456.851189 824.470818 434.510053 846.874534 407.03734 846.874534L101.739779 846.874534C74.298356 846.874534 51.957221 824.470818 51.957221 796.935525L51.957221 490.66797C51.957221 463.101387 74.298356 440.697672 101.739779 440.697672L407.03734 440.697672C434.510053 440.697672 456.851189 463.101387 456.851189 490.66797L456.851189 796.935525Z"  horiz-adv-x="1024" />

    
    <glyph glyph-name="renyuanxinxi" unicode="&#58929;" d="M452.124819 597.684754c-9.634428-23.261797-14.633279-48.417733-14.633279-73.590042 0-25.155936 4.998851-50.341548 14.633279-73.589019 9.626241-23.24747 23.873734-44.584428 41.662889-62.365396 17.833157-17.825994 39.141462-32.0653 62.396095-41.714054 23.26896-9.605775 48.424896-14.604626 73.581856-14.604626 25.171286 0 50.348712 4.999874 73.596182 14.604626 23.254633 9.648754 44.584428 23.88806 62.396095 41.714054 17.766642 17.780969 32.04995 39.118949 41.648562 62.365396 9.633405 23.24747 14.626115 48.433082 14.626115 73.589019 0 25.172309-4.992711 50.328245-14.626115 73.590042-9.598612 23.260773-23.88192 44.570101-41.648562 62.352093-17.810644 17.810644-39.141462 32.0653-62.396095 41.698704-23.24747 9.619078-48.424896 14.618952-73.596182 14.618952-25.15696 0-50.312896-4.999874-73.581856-14.618952-23.254633-9.633405-44.562938-23.88806-62.396095-41.698704C475.998553 642.254855 461.751061 620.94655 452.124819 597.684754zM795.643594 255.02657999999997L463.872375 255.02657999999997c-88.149643 0-160.295799-72.132854-160.295799-160.311149s72.146157-160.325475 160.295799-160.325475l331.772242 0c88.171132 0 160.296823 72.14718 160.296823 160.325475S883.815749 255.02657999999997 795.643594 255.02657999999997zM255.435135 87.22380599999997l-63.947428 0c-55.712883 0-101.041254 45.320185-101.041254 101.033068L90.446453 710.174758c0 55.712883 45.328371 101.033068 101.041254 101.033068 6.179746 0 11.192923 5.0142 11.192923 11.193947s-5.013177 11.192923-11.192923 11.192923c-68.059072 0-123.429147-55.363935-123.429147-123.420961l0-521.91686c0-68.058049 55.370075-123.420961 123.429147-123.420961l63.947428 0c6.179746 0 11.192923 5.013177 11.192923 11.192923S261.614881 87.22380599999997 255.435135 87.22380599999997zM713.411731 811.223175c55.711859 0 101.040231-45.321208 101.040231-101.034091l0-37.108153c0-6.179746 5.0142-11.192923 11.193947-11.192923s11.192923 5.013177 11.192923 11.192923l0 37.108153c0 68.059072-55.370075 123.420961-123.428124 123.420961-6.179746 0-11.193947-5.013177-11.193947-11.192923S707.231985 811.223175 713.411731 811.223175zM275.673062 811.223175l68.765153 0c6.179746 0 11.192923 5.013177 11.192923 11.192923s-5.013177 11.192923-11.192923 11.192923l-68.765153 0c-6.179746 0-11.192923-5.013177-11.192923-11.192923S269.492292 811.223175 275.673062 811.223175zM422.064176 811.223175l68.786643 0c6.179746 0 11.192923 5.013177 11.192923 11.192923s-5.013177 11.192923-11.192923 11.192923l-68.786643 0c-6.179746 0-11.193947-5.013177-11.193947-11.192923S415.88443 811.223175 422.064176 811.223175zM568.455291 811.223175l68.787666 0c6.179746 0 11.192923 5.013177 11.192923 11.192923s-5.013177 11.192923-11.192923 11.192923l-68.787666 0c-6.179746 0-11.192923-5.013177-11.192923-11.192923S562.275545 811.223175 568.455291 811.223175zM253.22684 644.266675l168.837336 0c6.179746 0 11.192923 5.013177 11.192923 11.192923s-5.013177 11.192923-11.192923 11.192923L253.22684 666.652522c-6.179746 0-11.192923-5.013177-11.192923-11.192923S247.047094 644.266675 253.22684 644.266675zM253.22684 568.374194l69.210291 0c6.179746 0 11.192923 5.0142 11.192923 11.193947s-5.013177 11.192923-11.192923 11.192923l-69.210291 0c-6.179746 0-11.192923-5.013177-11.192923-11.192923S247.047094 568.374194 253.22684 568.374194z"  horiz-adv-x="1024" />

    
    <glyph glyph-name="xitongguanli" unicode="&#58915;" d="M231.621606 771.219667c14.372738-9.35328 32.004797-15.99984 42.478629-28.597092 26.770439-32.188997 55.874082-38.748573 91.854535-17.749743 6.55446 3.822156 14.091321 5.960925 21.183031 8.856963 41.859511 17.074342 47.963704 25.941538 48.367921 70.27752 0.491201 54.27768 15.252806 69.336052 70.149603 69.049518 21.055114-0.10745 42.453046-1.105202 63.057892-5.045041 26.064338-4.978524 38.318773-23.280867 38.083406-49.81594-0.0921-10.228232 0.255834-20.46158-0.01535-30.684695-0.593534-22.134732 9.348164-37.566622 29.487393-46.203568 20.333663-8.718813 40.95386-16.772458 61.333573-25.388937 20.609964-8.713696 38.108989-3.607255 53.566462 11.374367 8.570429 8.304362 16.705941 17.084575 25.634538 24.974487 21.060231 18.614461 45.886334 20.686714 67.309849 2.732304 20.175046-16.905491 39.152791-35.622286 56.493199-55.434048 19.714546-22.528716 20.23133-48.674921-4.666407-67.678249-44.781132-34.16915-40.943627-70.016569-20.343896-115.959187 16.363124-36.49212 34.706401-55.838265 77.456213-53.111078 49.258222 3.146755 64.173327-14.403438 64.377994-62.960676 0.07675-17.898126 0.342817-35.811602-0.2149-53.694379-0.956818-30.925179-13.037286-44.525299-43.619647-49.795473-5.843242-1.007985-12.060001-2.29227-17.754859-1.350802-44.530415 7.342427-68.880668-13.820137-80.219218-54.983781-2.686254-9.752381-7.531744-18.936811-11.619967-28.279858-11.128766-25.450337-8.821146-47.87672 13.825254-66.429781 6.559576-5.372508 12.280018-11.819517 18.097677-18.041393 23.239934-24.86192 24.125119-47.359936 1.545236-72.114406-14.915105-16.352891-30.715395-31.994564-47.068286-46.925019-25.363354-23.152951-52.01611-22.375216-77.113396 1.228002-8.068995 7.588028-15.64679 15.703073-23.766951 23.234817-14.244821 13.211253-30.444211 18.07721-49.212172 10.484065-7.101944-2.875571-13.994104-6.53911-21.346765-8.452746-51.581192-13.441503-81.549553-40.365442-73.265657-99.857013 3.724939-26.744856-19.049378-46.464518-51.729576-48.633988-26.806256-1.780603-54.108829 1.396852-81.007185 4.154739-23.869285 2.450887-39.214191 18.49166-36.036736 41.368311 8.688113 62.474592-25.736871 87.730495-78.162314 105.695138-32.547164 11.15435-55.347064 9.32258-79.4159-16.588258-38.226673-41.15341-60.479089-39.930525-100.511947-0.327467-11.512517 11.389717-23.393434 22.441733-34.332884 34.363584-21.213731 23.112017-24.314436 51.146275-0.04605 69.996103 47.293419 36.73772 41.864628 75.010443 18.987978 122.728546-16.24544 33.882616-34.762684 49.826173-73.470324 47.979054-52.266827-2.496937-67.478699 15.426773-67.494049 68.53785-0.005117 14.490421-0.112567 28.980842 0.0307 43.471264 0.332584 33.805866 14.562055 50.220157 47.56972 54.87633 5.045041 0.711218 10.356149 1.862469 15.247689 1.033568 44.822066-7.552211 68.993234 14.388088 80.326668 55.316364 1.130785 4.072873 2.660671 8.202029 4.840374 11.793934 22.267766 36.66097 15.697956 67.524749-18.036276 93.420237-4.66129 3.581672-9.726798 7.951312-11.962784 13.103803-4.59989 10.576165-10.212882 21.878899-10.422665 32.976965C129.497906 700.133713 198.378574 766.10811 231.621606 771.219667zM148.583101 89.985669c5.111557-8.161095 8.534613-15.87704 13.932704-21.797032 12.044651-13.216369 24.994953-25.603838 37.709889-38.201089 25.220087-24.98472 36.113486-26.703922 58.621736-0.240484 33.698416 39.618408 69.730035 41.16876 116.348054 23.255284 52.103093-20.026663 88.088662-43.824314 80.843452-107.864608-3.300255-29.185509 11.12365-38.405756 41.07666-38.86114 6.820527-0.102333 13.641053-0.025583 20.456463-0.025583 66.537231-0.005117 66.818648-0.005117 67.545216 66.07673 0.368401 33.319782 16.854325 53.970679 47.293419 65.114795 44.218298 16.194274 87.321161 50.404357 134.988098 8.217379 7.649428-6.76936 14.971389-13.988987 21.827732-21.556548 15.437006-17.023175 30.300944-15.917973 45.773767-0.010233 13.073102 13.441503 26.632289 26.407155 40.022625 39.536541 22.109149 21.674232 21.694698 32.777415-0.010233 55.341948-12.264668 12.750752-26.074572 25.440104-33.775166 40.86176-19.970379 39.991925 27.931924 142.427742 71.270154 153.382541 15.309089 3.868206 32.132714 2.957438 48.188837 2.343437 25.204737-0.961935 35.627402 12.285135 37.141938 35.279468 0.614001 9.343047 0.399101 18.742377 0.404217 28.121241 0.0307 61.036806-2.312737 63.917494-62.489942 63.56956-24.89262-0.143267-48.608405 6.221876-59.281787 27.911458-16.649658 33.836566-31.789897 69.627702-39.475141 106.288672-6.53911 31.191246 24.508869 47.86137 43.10798 68.1848 14.551821 15.90774 16.13799 30.838195-0.977285 46.290551-13.277769 11.983251-25.603838 25.01542-38.426223 37.510338-24.820986 24.191635-33.857033 25.414521-56.447149 0.0921-33.723999-37.791755-69.571419-41.787878-116.829021-23.889752-55.490331 21.014181-93.082536 47.339469-82.925938 114.101834 3.126288 20.548563-9.957048 33.319782-32.342497 33.227682-20.456463-0.081867-40.92316 0.347934-61.374507-0.0921-21.096048-0.455384-33.150932-9.731914-32.782531-32.889982 0.255834-16.025423-0.358167-32.506231-3.796572-48.071154-11.0776-50.15364-119.730175-96.930275-163.467506-69.985869-14.209004 8.749513-25.373587 22.513366-37.689422 34.235667-15.810523 15.048139-31.027512 15.523989-46.556618-0.542367-15.396073-15.928207-31.447079-31.221946-46.766402-47.226903-11.870684-12.397701-11.839984-25.864788-0.588418-38.666707 7.864328-8.943946 16.859441-16.890141 24.867036-25.721521 21.183031-23.357618 29.062709-49.114955 14.945805-79.49265-9.312347-20.042013-17.161325-40.759426-25.859671-61.087973-11.297617-26.402039-32.419247-38.38529-60.156738-39.823075-11.901384-0.619118-23.864168-0.0921-35.796252-0.189317-22.078449-0.179084-32.731365-11.834867-32.992315-33.437466-0.2149-17.898126-0.255834-35.806486-0.051167-53.704612 0.358167-30.684695 9.036047-39.321641 39.551891-39.751442 8.524379-0.117684 17.048758 0.081867 25.573137-0.056283 30.045111-0.480967 52.271943-13.267536 64.413811-41.485994 9.07698-21.096048 17.186909-42.637246 27.021156-63.370009 12.264668-25.854555 5.091091-48.168371-10.970149-68.788567-8.335062-10.698966-19.100545-19.468945-27.814241-29.912077C156.72373 106.041793 153.459291 98.315615 148.583101 89.985669zM522.381732 572.928077c109.773127-0.573068 197.503623-87.551412 196.910088-195.221586-0.588418-107.823675-90.293949-191.327797-202.625413-192.514865-106.472873-1.130785-198.03064 95.144556-193.548434 200.829461C327.53878 490.155639 412.838855 573.501144 522.381732 572.928077zM345.72344 378.453525c0.0614-96.408375 78.694449-174.770239 175.29214-174.698606 95.666457 0.071633 176.371758 80.137351 176.540609 175.133523 0.163734 95.067806-80.265268 175.578674-175.716824 175.890791C423.768071 555.101584 345.66204 476.898336 345.72344 378.453525z"  horiz-adv-x="1024" />

    
    <glyph glyph-name="sanpanchongzuguize" unicode="&#59008;" d="M320.008314 320.02392l0-191.991686 511.978511 0L831.986825 320.02392 320.008314 320.02392zM797.854447 162.16461200000003L354.139669 162.16461200000003l0 123.727952 443.714777 0L797.854447 162.16461200000003zM320.008314 590.946282l507.954871 0c9.425673 0 17.065677 7.641027 17.065677 17.065677 0 9.425673-7.641027 17.065677-17.065677 17.065677L320.008314 625.077637c-9.425673 0-17.065677-7.641027-17.065677-17.065677C302.941614 598.58731 310.582641 590.946282 320.008314 590.946282zM827.963185 497.083521L320.008314 497.083521c-9.425673 0-17.065677-7.641027-17.065677-17.065677s7.641027-17.065677 17.065677-17.065677l507.954871 0c9.425673 0 17.065677 7.641027 17.065677 17.065677S837.388858 497.083521 827.963185 497.083521zM136.548956 896l0-238.923578L0.021489 657.076422l0-785.033443 136.527466 0 34.131355 0 853.297177 0L1023.977487 896 136.548956 896zM34.153868-93.82464300000004L34.153868 622.945067l102.396111 0 0-716.76971L34.153868-93.82464300000004zM989.846132-93.82464300000004L170.681334-93.82464300000004l0 750.902088L170.681334 861.867622l819.165822 0L989.847156-93.82464300000004z"  horiz-adv-x="1024" />

    
    <glyph glyph-name="shebeiyichang" unicode="&#59916;" d="M358.72 0c11.712-22.848 25.536-44.416 41.728-64L128-64 64-64c-17.664 0-32 14.336-32 32S46.336 0 64 0l41.408 0 67.968 191.104C68.992 259.77599999999995 0 377.72799999999995 0 512c0 212.096 171.904 384 384 384s384-171.904 384-384c0-4.544-0.704-8.896-0.832-13.376-20.416 5.696-41.472 9.792-63.232 11.776C703.936 510.912 704 511.424 704 512c0 176.448-143.552 320-320 320S64 688.448 64 512c0-105.92 52.352-199.296 131.904-257.6 17.536-12.864 36.16-24 56.128-33.088 22.208-10.112 45.76-17.728 70.208-22.72C320.832 185.91999999999996 320 173.05600000000004 320 160c0-8.896 0.704-17.6 1.344-26.304-31.808 5.312-62.4 14.016-91.072 26.56L173.312 0 358.72 0zM384 558.528c55.936 0 101.76-41.856 109.056-95.808 18.816 11.136 38.72 20.544 59.584 28.032C533.44 566.4 465.536 622.528 384 622.528 287.616 622.528 209.472 544.384 209.472 448c0-50.816 22.016-96.128 56.64-128 20.928-19.328 46.72-33.152 75.136-40.448C348.8 300.352 358.144 320.192 369.28 338.94399999999996 315.328 346.24 273.472 392.064 273.472 448 273.472 508.928 323.072 558.528 384 558.528zM430.528 704c0 25.728-20.864 46.528-46.528 46.528S337.472 729.7280000000001 337.472 704 358.272 657.472 384 657.472 430.528 678.2719999999999 430.528 704zM960 160c0-158.784-129.216-288-288-288S384 1.2160000000000082 384 160 513.216 448 672 448 960 318.784 960 160zM896 160C896 283.52 795.52 384 672 384S448 283.52 448 160 548.48-64 672-64 896 36.48000000000002 896 160zM640 128l64 0L704 320l-64 0L640 128zM640 0l64 0 0 64-64 0L640 0z"  horiz-adv-x="1024" />

    
    <glyph glyph-name="cangkutongdao" unicode="&#59925;" d="M320 768L254.656 768 0 768l0-62.016L0 448l128 0 0-64 128 0 0-128 768 0L1024 768 320 768zM192 448L192 512 128 512 64 512 64 704l192 0 0-256L192 448zM960 320L320 320 320 384l0 0 640 0L960 320zM960 448L320 448 320 576 320 704l640 0L960 448z"  horiz-adv-x="1024" />

    
    <glyph glyph-name="zonghechaxun" unicode="&#58907;" d="M229.83609 718.808188l461.985567 0 0-57.748052-461.985567 0 0 57.748052ZM228.296527 602.744999l461.985567 0 0-57.748052-461.985567 0 0 57.748052ZM114.341142 835.245585l692.976619 0 0-461.984413 57.748052 0 0 461.984413c0 31.893094-25.854958 57.748052-57.748052 57.748052l-692.976619 0c-31.893094 0-57.748052-25.854958-57.748052-57.748052l0-808.472722c0-31.893094 25.854958-57.748052 57.748052-57.748052l404.236361 0 0 57.748052-404.236361 0L114.341142 835.245585zM229.451488 371.75856799999997l0-57.748052 140.452501 0c0 20.068603 2.939376 39.447694 8.386172 57.748052L229.451488 371.75856799999997zM465.562482 487.254671L228.296527 487.254671l0-57.748052 175.543682 0C420.103216 452.819508 441.148916 472.545087 465.562482 487.254671zM902.807629 22.477563000000032L770.391347 153.32194300000003c30.443618 35.382231 48.851387 81.416668 48.851387 131.75449 0 111.626984-90.492352 202.11818-202.117026 202.11818-111.625829 0-202.11818-90.491197-202.11818-202.11818 0-111.624674 90.492352-202.11818 202.11818-202.11818 40.412086 0 78.049957 11.867225 109.631211 32.298485l135.217063-133.613977c11.275885-11.275885 29.557763-11.275885 40.833647 0C914.082359-7.080199999999991 914.082359 11.200522999999976 902.807629 22.477563000000032zM472.754424 285.07643299999995c0 79.73389 64.638549 144.370129 144.371284 144.370129 79.73158 0 144.368974-64.636239 144.368974-144.370129 0-79.73158-64.637394-144.370129-144.368974-144.370129C537.392973 140.70630400000005 472.754424 205.34485299999994 472.754424 285.07643299999995z"  horiz-adv-x="1045" />

    
    <glyph glyph-name="shujuzidian" unicode="&#59400;" d="M944.883081 111.82817999999997L944.883081 830.8368849999999c-2.898003 0.151449-5.935176 0.391926-8.621355 0.391926-203.078185 0-529.800411 0.12075-732.87962-0.2415-13.431917-0.030699-27.364231-2.052752-40.179095-5.947456-51.588959-15.72617-83.811848-60.975746-83.827197-116.307959-0.060375-232.132918-0.030699-391.817804-0.01535-623.951745 0-2.958378 0.029676-5.916756 0.12075-8.904811 1.298576-41.537022 16.346293-86.408999 50.335409-112.610754 23.893176-18.443048 51.362808-27.333532 81.820494-27.333532l732.279962 0 0 3.563152c0.966001-0.061398 0.966001-0.061398 0.966001-0.12075L944.883081 5.331681000000003c-18.35095 10.716063-30.91101 30.426987-30.91101 53.248761C913.972071 81.40119400000003 926.532131 101.11211800000001 944.883081 111.82817999999997zM869.291452-3.22008900000003L203.018833-3.22008900000003c-34.140565 0-61.820997 27.67327-61.820997 61.813834 0 34.140565 27.680433 61.813834 61.820997 61.813834l666.272619 0c-10.610662-18.35095-17.146519-39.173185-17.146519-61.813834C852.144934 35.95514200000002 858.68079 15.130860999999982 869.291452-3.22008900000003zM883.069247 182.22141399999998l-11.316743 0c-169.662121 0-462.960097-0.045025-632.623241 0.317225-33.900088 0.061398-67.88511 0.257873-98.792027-20.088524l0 11.230786c0 192.980199 0.38374 341.526397-0.429789 534.508643-0.1361 33.506115 23.171746 63.352887 64.829518 63.232137 181.809789-0.452301 487.255433-0.037862 669.052942-0.037862l9.279341 0L883.069247 182.22141399999998zM624.538099 623.045351c-14.236236 12.152784-31.42778 20.549012-51.578726 25.189705-14.394848 3.358491-35.266202 5.037736-62.615083 5.037736L389.192 653.272793l0-351.700107 126.909411 0c21.269419 0 40.101323 1.998517 56.497759 5.997598 16.391319 3.996011 30.385031 9.873882 41.983183 17.633612 11.594059 7.755638 22.270213 18.389836 32.027437 31.907711 9.753131 13.512758 17.752316 30.587646 23.990391 51.219545 6.237051 20.6319 9.355065 44.299949 9.355065 71.01131 0 31.344892-4.599761 59.21566-13.794168 83.607186C656.963603 587.337081 643.090641 607.369324 624.538099 623.045351zM622.739127 412.2893c-6.158257-18.634406-14.754029-33.466206-25.789363-44.503587-7.838525-7.838525-18.351973-13.913894-31.547507-18.232247-13.19451-4.318352-31.389918-6.477528-54.578036-6.477528l-75.090209 0L435.734012 611.7705639999999l73.890894 0c27.668153 0 47.741327-2.399653 60.216453-7.196912 17.272385-6.716982 31.945573-19.953448 44.022633-39.70428 12.072967-19.754926 18.111496-48.021713 18.111496-84.806501C631.975489 453.511143 628.895337 430.919613 622.739127 412.2893z"  horiz-adv-x="1024" />

    
    <glyph glyph-name="juesexinxi" unicode="&#58926;" d="M477.866667 307.20000000000005c64 0 123.733333 25.6 166.4 68.266667 46.933333 42.666667 68.266667 102.4 68.266666 166.4s-25.6 123.733333-68.266666 166.4c-42.666667 46.933333-102.4 68.266667-166.4 68.266666s-123.733333-25.6-166.4-68.266666c-46.933333-38.4-72.533333-98.133333-72.533334-162.133334s25.6-123.733333 68.266667-166.4c46.933333-46.933333 106.666667-72.533333 170.666667-72.533333z m0 418.133333c98.133333 0 179.2-81.066667 179.2-179.2 0-98.133333-81.066667-179.2-179.2-179.2-98.133333 0-179.2 81.066667-179.2 179.2C298.666667 644.266667 379.733333 725.333333 477.866667 725.333333zM315.733333 315.733333c-46.933333-21.333333-93.866667-51.2-132.266666-89.6-38.4-38.4-68.266667-81.066667-89.6-132.266666-12.8-34.133333-21.333333-64-29.866667-98.133334-4.266667-17.066667 12.8-34.133333 29.866667-34.133333 12.8 0 25.6 8.533333 29.866666 25.6 4.266667 29.866667 12.8 59.733333 25.6 85.333333 17.066667 42.666667 42.666667 81.066667 76.8 110.933334 34.133333 34.133333 72.533333 59.733333 115.2 76.8 17.066667 8.533333 21.333333 25.6 17.066667 38.4-8.533333 17.066667-25.6 21.333333-42.666667 17.066666zM938.666667 413.866667c-12.8 12.8-34.133333 8.533333-46.933334-4.266667l-307.2-379.733333L409.6 170.66666699999996c-12.8 12.8-34.133333 8.533333-46.933333-4.266667-12.8-12.8-8.533333-34.133333 4.266666-46.933333l200.533334-162.133334c4.266667-4.266667 12.8-8.533333 21.333333-8.533333s17.066667 4.266667 25.6 12.8l328.533333 401.066667c12.8 21.333333 12.8 38.4-4.266666 51.2z"  horiz-adv-x="1024" />

    
    <glyph glyph-name="yujing" unicode="&#58965;" d="M975.44 275.95c-60.727-230.121-300.437-396.32-540.147-351.574C214.76-40.467 48.56 157.694 45.365 381.423c-6.393 217.337 147.022 412.3 361.163 460.243 239.71 51.138 463.439-79.904 543.342-306.829 12.785-25.569 47.942-9.588 41.55 15.98C901.928 793.725 659.022 940.747 403.332 883.216 166.818 832.077-2.578 614.74 3.815 371.835s194.964-463.44 437.87-495.401c262.083-35.158 508.185 143.826 572.108 389.928 9.588 25.57-31.962 31.961-38.354 9.588zM598.295 669.075c-3.197 0-12.785-3.196-12.785-9.589-12.784-47.942-35.157-92.688-67.119-131.041v25.569c0 3.196-3.196 9.588-12.784 9.588H313.84c3.196 3.196 3.196 9.589 6.392 12.785v3.196c0-3.196 3.196-6.392 12.785-6.392H345.8c3.196 0 9.589 3.196 9.589 12.784V614.74h73.51v-31.96c0-3.197 3.197-9.59 12.785-9.59h12.785c3.196 0 9.588 3.197 9.588 12.785V614.74h76.707c3.196 0 9.589 3.197 9.589 12.785v12.784c0 3.197-3.197 9.589-12.785 9.589h-73.511v28.765c0 3.196-3.196 9.588-12.785 9.588H438.49c-3.196 0-9.588-3.196-9.588-12.784v-25.57H355.39v25.57c0 3.196-3.197 9.588-12.785 9.588H329.82c-9.588-9.588-12.784-12.784-12.784-19.176v-25.57h-76.707c-3.196 3.197-12.785 0-12.785-6.392v-12.784c0-3.196 3.196-9.589 12.785-9.589h76.707v-22.373c-3.196 6.393-3.196 6.393-9.588 9.589-3.197 0-6.393 3.196-6.393 3.196h-9.588c-3.196 0-12.785-3.196-12.785-9.589-12.784-41.55-31.961-73.51-63.922-102.276-3.196-3.196-9.589-9.588-3.196-12.784 12.784-9.589 12.784-12.785 15.98-15.98 3.196-3.197 9.589-9.59 12.785-3.197 15.98 12.784 28.765 25.569 41.55 41.55 3.196 9.588 12.784 28.765 15.98 31.961 12.785 9.588 47.942 0 63.923 0h121.453c0-22.373 3.196-63.923-9.589-76.707-9.588-15.98-22.373-22.373-38.353-22.373 0 3.196 3.196 3.196 3.196 6.392V515.66c0 3.196-3.196 9.589-12.785 9.589H301.055c-6.392-3.196-9.588-9.589-9.588-15.981v-73.511c0-3.196 3.196-9.588 12.784-9.588h105.473v-9.589c0-3.196 3.196-9.588 3.196-12.784 0-3.196 9.588-9.589 12.784-9.589 22.373 0 47.942 0 63.923 12.785 3.196-6.392 9.588-15.98 12.785-25.57H240.329c-12.785 0-15.98-9.588-12.785-15.98v-9.588c0-3.196 3.196-9.589 12.785-9.589H783.67c3.196 0 9.589 3.196 9.589 12.785v12.784c0 3.196-3.197 9.589-12.785 9.589H547.157c-3.196 0-19.176-3.196-19.176 0v9.588c22.373 6.392 47.942 15.98 70.315 28.765 12.784 9.589 31.96 25.57 44.745 25.57 9.589 0 28.766-19.177 41.55-25.57 25.57-12.784 51.138-25.569 79.903-31.961 3.197 0 12.785 0 12.785 3.196 3.196 3.196 3.196 9.589 9.588 12.785 3.196 3.196 0 12.784-3.196 12.784-25.569 6.392-47.942 15.98-67.119 25.57-15.98 6.392-31.96 15.98-44.745 25.568 22.373 25.57 41.55 51.138 51.138 83.1 3.196 9.588 3.196 28.765 9.588 31.961 3.196 3.196 25.57 0 31.961 0 3.197 0 9.589 3.196 9.589 12.785v12.784c0 3.196 0 3.196-3.196 6.392H607.884c3.196 12.785 6.392 25.57 9.588 35.158v6.392M329.82 486.895h79.904v-31.961H329.82v31.961z m188.572 6.392c3.196 0 3.196 0 0 0h3.196c3.197 0 3.197 0 6.393 3.197 0 0 0 3.196 3.196 3.196s3.196 3.196 3.196 3.196c12.784 12.784 22.373 25.569 31.961 38.353 12.785-25.569 28.765-47.942 47.942-67.118-28.765-19.177-60.726-35.158-99.08-44.746v3.196c0 3.196-3.196 3.196-9.588 3.196 9.588 12.785 12.784 35.157 12.784 57.53z m185.376 99.08c-12.785-35.157-28.765-67.118-54.334-92.687-19.177 19.176-38.354 38.353-47.942 63.922-3.196 9.589-3.196 12.785-3.196 19.177 0 3.196 3.196 6.392 3.196 9.588h102.276z m15.98-508.185h12.785c3.196 0 9.589 3.197 9.589 12.785V205.636c0 3.196-3.197 3.196-6.393 3.196 0 3.196-3.196 3.196-6.392 3.196H310.644c-3.196 0-9.589-3.196-9.589-12.785v-108.668c0-3.196 3.196-9.589 12.785-9.589h12.784c3.196 0 9.589 3.196 9.589 12.785v12.784H710.16v-15.98c-3.196-3.196 0-6.393 9.589-6.393zM329.82 176.87h373.948v-41.55H329.82v41.55z m380.34 118.257c3.196 0 9.589 3.196 9.589 12.785v12.784c0 3.196-3.197 9.589-12.785 9.589H313.84c-3.196 0-3.196-3.196-3.196-6.393-3.196 0-3.196-3.196-3.196-6.392v-12.784a330237278478818400 330237278478818400 0 0 1 402.713-9.588z m-405.909-47.942c0-3.196 3.197-9.588 12.785-9.588H710.16c3.196 0 9.589 3.196 9.589 12.784v12.785c0 3.196-3.197 9.588-12.785 9.588H313.84c-3.196 0-3.196-3.196-3.196-6.392-3.196 0-3.196-3.196-3.196-6.392-3.197-6.393-3.197-9.589-3.197-12.785z"  horiz-adv-x="1024" />

    
    <glyph glyph-name="yonghuxinxi" unicode="&#58903;" d="M518.826667 313.002667c-143.36 0-260.096 113.322667-260.096 251.904C258.730667 703.488 375.466667 816.810667 518.826667 816.810667s260.096-113.322667 260.096-251.904c0-138.581333-116.736-251.904-260.096-251.904z m0 462.848c-120.832 0-219.136-94.890667-219.136-210.944S397.994667 353.962667 518.826667 353.962667s219.136 94.890667 219.136 210.944S639.658667 775.850667 518.826667 775.850667zM99.669333-48.81066699999997h-3.413333c-10.922667 2.048-18.432 12.970667-16.384 23.893334 38.912 219.136 223.914667 378.88 439.637333 378.88 103.765333 0 201.386667-36.181333 282.624-104.448 8.874667-7.509333 9.557333-20.48 2.730667-28.672-7.509333-8.874667-20.48-9.557333-28.672-2.730667-74.410667 62.122667-163.157333 94.890667-257.365333 94.890667-195.242667 0-363.178667-145.408-398.677334-344.746667-2.048-10.24-10.922667-17.066667-20.48-17.066667zM924.330667 69.29066699999998H591.872c-11.605333 0-20.48 8.874667-20.48 20.48s8.874667 20.48 20.48 20.48h332.458667c11.605333 0 20.48-8.874667 20.48-20.48s-8.874667-20.48-20.48-20.48zM924.330667-48.81066699999997H591.872c-11.605333 0-20.48 8.874667-20.48 20.48s8.874667 20.48 20.48 20.48h332.458667c11.605333 0 20.48-8.874667 20.48-20.48s-8.874667-20.48-20.48-20.48z"  horiz-adv-x="1024" />

    
    <glyph glyph-name="cunliangkongzhitongji" unicode="&#58988;" d="M832 832H192c-70.4 0-128-57.6-128-128v-640c0-70.4 57.6-128 128-128h640c70.4 0 128 57.6 128 128V704c0 70.4-57.6 128-128 128zM320 96c0-17.6-14.4-32-32-32h-64c-17.6 0-32 14.4-32 32V416c0 17.6 14.4 32 32 32h64c17.6 0 32-14.4 32-32v-320z m256.6 0c0-17.6-14.4-32-32-32h-64c-17.6 0-32 14.4-32 32V544c0 17.6 14.4 32 32 32h64c17.6 0 32-14.4 32-32v-448z m255.4 0c0-17.6-14.4-32-32-32h-64c-17.6 0-32 14.4-32 32V480c0 17.6 14.4 32 32 32h64c17.6 0 32-14.4 32-32v-384z"  horiz-adv-x="1024" />

    
    <glyph glyph-name="danhaobianmaguize" unicode="&#58880;" d="M354 64h661v-128H354v128z m0 384h661v-128H354v128z m0 384h661v-128H354V832zM162 896v-256H98V832H34V896h128zM98 370v-50h128v-64H34v146l128 60v50H34v64h192v-146l-128-60z m128-178v-320H34v64h128v64H34v64h128v64H34v64h192z"  horiz-adv-x="1024" />

    
    <glyph glyph-name="wuliaocunfangguize" unicode="&#59546;" d="M896 704v-64H384v64h512zM224 576c52.8 0 96 43.2 96 96s-43.2 96-96 96-96-43.2-96-96 43.2-96 96-96z m128-160H128v-64h224v64z m320-64h224v64H672v-64z m-64 32c0 52.8-43.2 96-96 96s-96-43.2-96-96 43.2-96 96-96 96 43.2 96 96z m-480-320h512v64H128v-64z m672 128c-52.8 0-96-43.2-96-96s43.2-96 96-96 96 43.2 96 96-43.2 96-96 96z"  horiz-adv-x="1024" />

    
    <glyph glyph-name="jichuxinxi" unicode="&#58948;" d="M733.876706 880.941176H245.338353c-15.375059-0.120471-30.162824 0.030118-40.357647-10.134588-6.113882-6.113882-9.216-14.802824-9.216-25.856V760.470588H116.148706c-3.388235 0-6.686118 0.135529-9.86353 0.271059-13.477647 0.496941-27.361882 1.084235-37.225411-8.432941-5.857882-5.616941-8.824471-13.522824-8.824471-23.506824v-813.492706C60.235294-107.188706 65.189647-128 101.089882-128h629.805177C768-128 768-104.990118 768-84.690824V-7.529412h94.102588C881.001412-7.529412 903.529412 1.852235 903.529412 46.516706V721.272471L733.876706 880.941176zM722.823529 849.995294L865.957647 715.294118H752.338824c-12.318118 0-29.515294 7.243294-29.515295 19.06447V849.995294z m15.058824-934.686118c0-4.035765 0-9.712941-0.391529-12.830117-1.249882-0.180706-3.312941-0.361412-6.595765-0.361412H101.089882c-7.137882 0-9.517176 0.933647-9.487058 0.647529-0.331294 0.662588-1.249882 3.312941-1.249883 12.544V728.801882c0 0.692706 0.030118 1.249882 0.075294 1.656471 3.162353 0.632471 9.938824 0.361412 14.667294 0.165647 3.553882-0.120471 7.273412-0.271059 11.053177-0.271059H210.823529v-668.566588C210.823529 35.418353 237.447529 7.529412 262.610824 7.529412H737.882353v-92.220236zM862.102588 22.588235h-599.491764C245.790118 22.588235 225.882353 43.836235 225.882353 61.786353V844.950588c0 3.011765 0.421647 4.336941 0.331294 4.457412 2.56 1.430588 12.242824 1.430588 19.094588 1.415529H707.764706v-116.464941C707.764706 713.938824 730.804706 700.235294 752.338824 700.235294h115.621647c1.987765 0 3.779765 0.120471 5.451294 0.301177v-654.034824C873.411765 22.588235 867.403294 22.588235 862.102588 22.588235zM791.762824 459.294118H346.563765c-0.828235 0-1.551059-0.466824-2.349177-0.527059a18.868706 18.868706 0 0 1-16.835764 10.330353 19.245176 19.245176 0 0 1 0-38.490353c8.372706 0 15.299765 5.857882 17.92 13.342117 0.421647-0.030118 0.813176 0.286118 1.264941 0.286118h445.199059c8.448 0 11.038118 3.312941 11.038117 7.529412s-2.605176 7.529412-11.038117 7.529412zM791.762824 233.411765H346.563765c-0.828235 0-1.551059-0.466824-2.349177-0.527059a18.868706 18.868706 0 0 1-16.835764 10.330353 19.245176 19.245176 0 0 1 0-38.490353c8.372706 0 15.299765 5.857882 17.92 13.342118 0.421647-0.030118 0.813176 0.286118 1.264941 0.286117h445.199059c8.448 0 11.038118 3.312941 11.038117 7.529412s-2.605176 7.529412-11.038117 7.529412zM791.762824 655.058824H346.563765c-0.828235 0-1.551059-0.466824-2.349177-0.527059a18.868706 18.868706 0 0 1-16.835764 10.330353 19.245176 19.245176 0 0 1 0-38.490353c8.372706 0 15.299765 5.857882 17.92 13.342117 0.421647-0.030118 0.813176 0.286118 1.264941 0.286118h445.199059c8.448 0 11.038118 3.312941 11.038117 7.529412s-2.605176 7.529412-11.038117 7.529412z"  horiz-adv-x="1024" />

    
    <glyph glyph-name="shouchizhongduan" unicode="&#58917;" d="M796.444444-14.222221999999988v-113.777778H227.555556v113.777778a113.777778 113.777778 0 0 0-113.777778 113.777778V782.222222a113.777778 113.777778 0 0 0 113.777778 113.777778h568.888888a113.777778 113.777778 0 0 0 113.777778-113.777778v-682.666666a113.777778 113.777778 0 0 0-113.777778-113.777778z m0 739.555555a56.888889 56.888889 0 0 1-56.888888 56.888889H284.444444a56.888889 56.888889 0 0 1-56.888888-56.888889v-284.444444a56.888889 56.888889 0 0 1 56.888888-56.888889h455.111112a56.888889 56.888889 0 0 1 56.888888 56.888889V725.333333z m-56.888888-455.111111h-170.666667a56.888889 56.888889 0 0 1 0-113.777778h170.666667a56.888889 56.888889 0 0 1 0 113.777778z"  horiz-adv-x="1024" />

    
    <glyph glyph-name="chepaishibieyi" unicode="&#58892;" d="M511.935008 895.874016C229.201797 895.874016 0 666.674218 0 383.937008c0-282.73521 229.201797-511.937008 511.935008-511.937008 282.73721 0 511.939008 229.201797 511.939008 511.937008 0 282.73721-229.201797 511.937008-511.939008 511.937008z m0-993.685731c-266.061262 0-481.746723 215.68746-481.746723 481.748723 0 266.063262 215.685461 481.748722 481.746723 481.748722 266.067261 0 481.750722-215.685461 481.750722-481.748722 0-266.059262-215.683461-481.748722-481.750722-481.748723zM434.910486 308.74026000000003a590.177381 590.177381 0 0 1 6.789164-43.342666c-31.332145-23.32513-61.098482-46.476281-89.297012-69.453454-6.963143-6.267229-14.622201-14.274244-22.977173-24.021045l-30.810209 32.376017c11.140629 11.140629 16.709944 26.458744 16.709944 45.954345V430.937225h-66.319839v37.599373h106.530891v-221.938691c28.546487 21.235387 55.005232 41.948838 79.374234 62.142353z m-107.574764 325.335969c34.117802-34.813716 61.272461-63.536182 81.463976-86.165398l-36.031566-29.766337c-26.806702 34.465759-52.221574 64.406075-76.242619 89.820948l30.810209 26.110787z m190.606547-324.292097l34.987695-25.066916c-41.428902-50.479789-87.731205-100.785599-138.906908-150.919429-8.702929 8.354972-19.321623 17.755815-31.854081 28.19853 48.042089 43.520645 93.30052 92.782583 135.773294 147.787815z m-73.109004 297.659374H732.56986v-274.682201h-40.211053v31.332144H485.042317v-31.332144h-40.211052V607.4435060000001z m247.527542-36.555502H485.042317v-170.241052h207.31649v170.241052z m-77.28649-288.258531l33.943823 25.066916c41.428902-44.21456 83.37974-92.08267 125.852515-143.60833l-37.599374-28.19853c-39.341159 50.827746-80.072147 99.741727-122.196964 146.739944z"  horiz-adv-x="1024" />

    
    <glyph glyph-name="huoweitiaozheng" unicode="&#58937;" d="M341.321131-85.32479999999998c0-23.466667-19.2-42.666667-42.666667-42.666667s-42.666667 19.2-42.666667 42.666667V750.4639999999999L72.777131 566.698667a42.7776 42.7776 0 0 0-60.330667 0 42.7776 42.7776 0 0 0 0 60.330666l255.744 256.512A42.4192 42.4192 0 0 0 298.526464 895.957333c0.042667 0 0.085333 0.042667 0.128 0.042667 2.005333 0 3.754667-0.896 5.717333-1.152 3.456-0.512 6.997333-0.768 10.282667-2.090667 15.573333-6.4 26.666667-21.632 26.666667-39.424v-938.658133z m414.455466-30.216533a42.530133 42.530133 0 0 0-30.336-12.416c-0.042667 0-0.085333-0.042667-0.128-0.042667-2.005333 0-3.754667 0.896-5.717333 1.194667-3.498667 0.469333-6.997333 0.725333-10.282667 2.090666-15.573333 6.357333-26.666667 21.589333-26.666666 39.381334V853.3248c0 23.466667 19.2 42.666667 42.666666 42.666667s42.666667-19.2 42.666667-42.666667v-835.754667l183.210667 183.722667c16.5888 16.597333 43.776 16.597333 60.3648 0 16.554667-16.5888 16.554667-43.7248 0-60.330667L755.776597-115.54133300000001z"  horiz-adv-x="1024" />

    
    <glyph glyph-name="shebeipeizhi" unicode="&#58883;" d="M735.5-63h-447C165.3-63 65 37.3 65 160.5v447C65 730.7 165.3 831 288.5 831h447C858.7 831 959 730.7 959 607.5v-447C959 37.3 858.7-63 735.5-63z m-447 812.7c-78.4 0-142.2-63.8-142.2-142.2v-447c0-78.4 63.8-142.2 142.2-142.2h447c78.4 0 142.2 63.8 142.2 142.2v447c0 78.4-63.8 142.2-142.2 142.2h-447zM512.2 291.3c-51.2 0-92.9 41.6-92.9 92.7s41.7 92.7 92.9 92.7c24.8 0 48.1-9.7 65.6-27.2C595.4 432 605 408.7 605 384c0.1-51.1-41.6-92.7-92.8-92.7m217.6 134h-0.1L686 435l-1.1 3.4c-2.9 9.1-6.6 18.2-11.5 27.8l-1.5 3 23.5 39.2c7.2 11.5 10.2 27.3 0.9 36.7l-22.1 22.1c-5.5 5.6-12.7 6.7-17.7 6.7-6.9 0-14.3-2.3-19.7-6l-0.1-0.1-38.2-24.4-3.1 1.6c-9 4.7-18.3 8.6-27.6 11.6l-3.3 1.1-9.8 44.1v0.1c-2.3 12.5-13.2 26-27 26h-31.2c-13.3 0-22.3-13.3-25.3-26.5l-10.9-43.5-3.2-1c-10-3.2-19.9-7.4-29.4-12.4l-3.1-1.7-39.1 24.9-0.1 0.1c-5.4 3.8-12.8 6-19.7 6-5 0-12.2-1.2-17.7-6.7L325.9 545c-9.4-9.4-6.3-25.2 0.9-36.7l24.6-41-1.5-3c-4.6-9.2-8-17.7-10.7-26l-1.1-3.4-43.6-9.7h-0.1c-12.5-2.3-26-13.2-26-27v-31.3c0-13.3 13.3-22.3 26.5-25.3l44-11 1-3.2c2.6-7.9 5.8-15.8 9.9-24.1l1.5-3-24.6-41.1c-7.2-11.5-10.2-27.2-0.9-36.6l22.1-22.1c5.5-5.5 12.7-6.7 17.7-6.7 6.9 0 14.3 2.3 19.7 6l0.1 0.1 39.2 25 3.1-1.7c9.7-5.1 19.6-9.3 29.6-12.4l3.3-1 10.8-43.4c3-13.2 12-26.5 25.3-26.5h31.2c13.8 0 24.7 13.5 26.9 26v0.1l9.8 44.2 3.3 1.1c9.2 3 18.4 6.8 27.3 11.5l3.1 1.6 38.3-24.4 0.1-0.1c5.4-3.8 12.8-6 19.7-6 5 0 12.2 1.2 17.7 6.7l22.1 22.1c9.4 9.4 6.3 25.2-0.9 36.6l-23.5 39.2 1.5 3c4.3 8.6 8 17.3 10.8 25.9l1.1 3.2 44 11c13.2 3 26.5 12 26.5 25.3v31.3c0.1 13.9-13.4 24.9-25.9 27.1"  horiz-adv-x="1024" />

    
    <glyph glyph-name="LEDxianshiqi" unicode="&#59058;" d="M143.002 807.483h739.09c42.532 0 77.31-34.793 77.31-77.308v-466.963c0-42.516-34.778-77.308-77.31-77.308h-739.09c-42.532 0-77.31 34.792-77.31 77.308V730.175c0 42.515 34.778 77.308 77.31 77.308z m142.295-792.452c49.722 9.504 99.443 15.766 149.165 19.01v107.38H612.28v-108.31c47.695-3.533 95.375-9.612 143.07-18.081v-54.11H285.297v54.111zM134.045 735.216V323.84000000000003h753.912V735.216H134.045z m677.304-447.539c-17.717 0-32.082-14.365-32.082-32.082 0-17.716 14.365-32.081 32.082-32.081 17.716 0 32.081 14.365 32.081 32.081 0 17.717-14.365 32.082-32.081 32.082z"  horiz-adv-x="1024" />

    
    <glyph glyph-name="cangkuxinxi" unicode="&#58924;" d="M960-85.33333300000004c-12.8 0-21.333333 8.533333-21.333333 21.333333V499.2c0 6.4-2.133333 12.8-8.533334 17.066667l-405.333333 290.133333c-4.266667 4.266667-8.533333 4.266667-12.8 4.266667s-8.533333 0-12.8-4.266667l-405.333333-292.266667c-6.4-2.133333-8.533333-8.533333-8.533334-14.933333V-64c0-12.8-8.533333-21.333333-21.333333-21.333333s-21.333333 8.533333-21.333333 21.333333V499.2c0 19.2 8.533333 38.4 25.6 51.2l405.333333 292.266667c10.666667 6.4 25.6 10.666667 38.4 10.666666 12.8 0 27.733333-4.266667 38.4-12.8l405.333333-292.266666c17.066667-12.8 25.6-29.866667 25.6-51.2V-64c0-12.8-8.533333-21.333333-21.333333-21.333333zM213.333333 426.666667h85.333334c36.266667 0 64-27.733333 64-64v-85.333334c0-36.266667-27.733333-64-64-64h-85.333334c-36.266667 0-64 27.733333-64 64v85.333334c0 36.266667 27.733333 64 64 64z m-21.333333-149.333334c0-12.8 8.533333-21.333333 21.333333-21.333333h85.333334c12.8 0 21.333333 8.533333 21.333333 21.333333v85.333334c0 12.8-8.533333 21.333333-21.333333 21.333333h-85.333334c-12.8 0-21.333333-8.533333-21.333333-21.333333v-85.333334z m21.333333-149.333333h85.333334c36.266667 0 64-27.733333 64-64v-85.333333c0-36.266667-27.733333-64-64-64h-85.333334c-36.266667 0-64 27.733333-64 64v85.333333c0 36.266667 27.733333 64 64 64z m-21.333333-149.333333c0-12.8 8.533333-21.333333 21.333333-21.333334h85.333334c12.8 0 21.333333 8.533333 21.333333 21.333334v85.333333c0 12.8-8.533333 21.333333-21.333333 21.333333h-85.333334c-12.8 0-21.333333-8.533333-21.333333-21.333333v-85.333333z m341.333333 149.333333h85.333334c36.266667 0 64-27.733333 64-64v-85.333333c0-36.266667-27.733333-64-64-64h-85.333334c-36.266667 0-64 27.733333-64 64v85.333333c0 36.266667 27.733333 64 64 64z m-21.333333-149.333333c0-12.8 8.533333-21.333333 21.333333-21.333334h85.333334c12.8 0 21.333333 8.533333 21.333333 21.333334v85.333333c0 12.8-8.533333 21.333333-21.333333 21.333333h-85.333334c-12.8 0-21.333333-8.533333-21.333333-21.333333v-85.333333z"  horiz-adv-x="1024" />

    
    <glyph glyph-name="huoweixinxi" unicode="&#58934;" d="M865.5 285.70000000000005l157.7-323.9c6.4-13.2-0.3-24-15-24H19c-14.7 0-21.4 10.8-15 24l157.7 323.9c2.5 5.2 9.2 9.4 15 9.4h135.2c4.2 0 9.8-2.6 12.5-5.8 9.2-10.6 18.5-21 27.8-31.2 8.8-9.7 17.7-19.6 26.6-29.7H218.4c-5.7 0-12.5-4.2-15-9.4L98.9 4.5h829.4L823.8 219c-2.5 5.2-9.2 9.4-15 9.4H648.1c8.8 10.1 17.7 19.9 26.6 29.7 9.3 10.3 18.7 20.6 27.9 31.2 2.7 3.1 8.3 5.7 12.5 5.7h135.5c5.7 0.1 12.4-4.2 14.9-9.3zM490.9 737.9c-136-12.9-229.1-144.6-205.4-279.1 24.1-136.6 150.1-178.7 212.6-332 5.6-13.8 25.1-13.9 30.7-0.1C598.1 296.9 745.4 330 745.4 507c0 135.6-116.3 244-254.5 230.9z m22.5-353.4c-67.7 0-122.5 54.8-122.5 122.5s54.8 122.5 122.5 122.5S635.9 574.7 635.9 507c0-67.6-54.8-122.5-122.5-122.5z"  horiz-adv-x="1025" />

    
    <glyph glyph-name="zuoyetongji" unicode="&#58979;" d="M908.288 203.77599999999995a25.6 25.6 0 0 0-46.592 21.248 384 384 0 1 1-114.688-144.7424 25.6 25.6 0 0 0 31.3344-40.448 435.2 435.2 0 1 0 129.8944 163.9936z m-461.824 34.816l-76.5952 136.0384-93.184-127.7952a25.6 25.6 0 1 0-41.3696 30.208l140.1344 192.1024 77.056-136.9088 113.408 151.9616 98.816-127.7952 112.2816 194.048a25.6 25.6 0 0 0 44.288-25.6512l-150.4256-260.0448-104.2432 134.8096-120.1152-160.9728z"  horiz-adv-x="1024" />

    
    <glyph glyph-name="shebeiyunxing" unicode="&#58908;" d="M565.93216 883.2C226.73216 921.6-54.86784 620.8 9.13216 275.20000000000005c38.4-198.4 198.4-352 396.8-390.4 345.6-64 633.6 204.8 595.2 544C981.93216 665.6 796.33216 857.6 565.93216 883.2zM476.33216 185.60000000000002h-128v384h128v-384z m192 0h-128v384h128v-384z"  horiz-adv-x="1026" />

    
    <glyph glyph-name="quyuxinxi" unicode="&#58945;" d="M510.432 838.432c118.88 0 220.992-110.4 220.992-254.912 0-101.92-136.096-314.176-220.992-424.672-84.896 110.496-220.96 322.784-220.96 424.672-0.032 144.512 102.048 254.912 220.96 254.912z m0 42.432c-144.512 0-263.392-135.936-263.392-297.344 0-161.536 263.392-492.704 263.392-492.704s263.424 331.36 263.424 492.704c0 161.44-119.296 297.344-263.424 297.344m478.752-977.024H34.784c-17.184 0-34.016 17.184-34.016 34.016v509.76c0 17.024 16.832 34.016 34.016 34.016H170.56c16.992 0 34.016-16.992 34.016-34.016s-17.024-34.016-34.016-34.016H60.064v-450.112h895.296V413.568h-102.048c-17.024 0-33.856 17.024-33.856 34.016s16.8 34.016 33.856 34.016h135.904c17.024 0 34.016-16.992 34.016-34.016v-509.728c0-16.832-17.216-34.016-34.048-34.016M510.432 768.64a151.04 151.04 0 0 1-151.168-151.104 150.88 150.88 0 0 1 151.168-150.816 151.264 151.264 0 0 1 150.816 150.816c0 83.136-67.872 151.104-150.816 151.104z m0-261.248a110.752 110.752 0 0 0-111.2 111.008 110.72 110.72 0 0 0 111.2 111.008 110.656 110.656 0 0 0 110.848-111.008 111.136 111.136 0 0 0-110.848-111.008z"  horiz-adv-x="1024" />

    
    <glyph glyph-name="bumenxinxi" unicode="&#58961;" d="M669.538462 187.07692299999997v-315.076923h315.076923V187.07692299999997z m236.307692-236.307692H748.307692v157.538461h157.538462zM39.384615-128h315.076923V187.07692299999997H39.384615z m78.769231 236.307692h157.538462v-157.538461H118.153846zM866.461538 265.84615399999996h39.384616V344.61538499999995H551.384615V423.384615H748.307692V896H275.692308v-472.615385h196.923077v-78.76923H118.153846v-78.769231h748.307692zM433.230769 580.9230769999999V738.461538h157.538462v-157.538461z"  horiz-adv-x="1024" />

    
    <glyph glyph-name="keshangguanli" unicode="&#59148;" d="M564.928 219.13599999999997c-16.32-34.08-37.44-82.336-37.44-103.776 0-30.272 55.968-51.36 55.968-51.36s55.968 21.088 55.968 51.36c0 21.408-21.152 69.728-37.44 103.776a41.088 41.088 0 0 0-37.056 0zM583.424 278.4a22.208 22.208 0 1 1 0.032 0.032h-0.032zM755.424 315.712a26.08 26.08 0 0 1-31.648-41.44 230.112 230.112 0 0 0 91.04-184.096 26.208 26.208 0 0 1 26.048-26.176h0.032a26.208 26.208 0 0 1 26.048 26.176 281.888 281.888 0 0 1-111.52 225.536zM775.008 513.216a191.52 191.52 0 0 1-191.52 191.52 191.328 191.328 0 0 1-105.088-351.36 285.344 285.344 0 0 1-178.4-263.072 26.112 26.112 0 0 1 52.224 0 231.648 231.648 0 0 0 231.232 231.36 191.584 191.584 0 0 1 191.552 191.552z m-330.912 0a139.424 139.424 0 1 0 278.816-0.032 139.424 139.424 0 0 0-278.816 0.032zM359.936 351.58399999999995c0.224 0 0.384-0.128 0.608-0.128a24.544 24.544 0 0 1 24.544 24.544 24.352 24.352 0 0 1-23.008 24.224 111.264 111.264 0 0 0-83.808 107.616c0 47.296 29.536 87.456 71.072 103.68 7.776 17.632 17.6 33.856 29.216 48.672a152.704 152.704 0 0 1-135.648-108.288 153.024 153.024 0 0 1 62.752-171.872 228.288 228.288 0 0 1-142.72-210.464 20.896 20.896 0 1 1 41.792 0c0.128 91.904 67.328 167.584 155.2 182.016z"  horiz-adv-x="1024" />

    
    <glyph glyph-name="chuku" unicode="&#58882;" d="M850.7 310.17l-0.48 0.51c-4.11 4.22-13.73 14.1-30.82 14.1-11.16 0-22.46-4.9-31-13.43s-13.4-19.84-13.4-31v-31.63c-30.71-4.14-57.7-12.9-80.45-26.15a164.36 164.36 0 0 1-58.74-57.83c-25.3-42-28.65-88.11-30.26-110.27-0.24-3.32-0.45-6.19-0.66-8.06a24.21 24.21 0 0 1-0.16-2.75c0-24.19 21.63-41 41-41 15.06 0 26.65 7.45 34.47 22.16 26.06 41.28 55.89 62.49 94.67 66.6v-39c0-23.4 17.66-41 41.09-41 16.5 0 25.88 9.14 30.39 13.53l0.07 0.07q0.56 0.55 1.09 1.14L940 128.7c7.73 7.64 20 20.2 20.14 39.9a55.21 55.21 0 0 1-17 40.91z m54.71-147.42l-1-1-81-89.86v44.26a24.28 24.28 0 0 1-23 24.24c-35.61 1.9-67.55-5.38-95-21.62-17.91-10.61-34.09-25-49-43.56 8.74 60.08 37.78 121 144.14 127.22a24.28 24.28 0 0 1 22.86 24.24V268l84.53-92q0.68-0.74 1.42-1.43a6.66 6.66 0 0 0 2.15-5c-0.89-1.68-4.37-5.11-6.1-6.82zM538.13 40.38h-52.7c-20.49 0-24.89-4.39-24.89-24.88v-54.16c0-20.5 4.39-24.89 24.89-24.89h52.7c20.5 0 24.89 4.39 24.89 24.89v54.15c-1.46 20.51-5.85 24.89-24.89 24.89zM362.48 40.38h-52.7c-20.49 0-24.89-4.39-24.89-24.88v-54.16c0-20.5 4.39-24.89 24.89-24.89h52.7c20.49 0 24.88 4.39 24.88 24.89v54.15c-1.47 20.51-5.86 24.89-24.88 24.89zM362.48 228.1h-52.7c-20.49 0-24.89-4.39-24.89-24.88v-52.7c0-20.49 4.39-24.88 24.89-24.88h52.7c20.49 0 24.88 4.39 24.88 24.88v54.15c-1.47 19.04-5.86 23.43-24.88 23.43zM485.43 405.22c-20.49 0-24.88-4.39-24.88-24.88v-54.16c0-20.5 4.39-24.89 24.88-24.89h52.7c20.49 0 24.88 4.39 24.88 24.89v54.16c-1.46 20.49-5.85 24.88-24.88 24.88zM538.13 228.1h-52.7c-20.49 0-24.89-4.39-24.89-24.88v-52.7c0-20.49 4.39-24.88 24.89-24.88h52.7c20.5 0 24.89 4.39 24.89 24.88v54.15c-1.46 19.04-5.85 23.43-24.89 23.43zM362.48 405.22h-52.7c-20.49 0-24.89-4.39-24.89-24.88v-54.16c0-20.49 4.39-24.88 24.89-24.88h52.7c20.49 0 24.88 4.39 24.88 24.88v54.16c-1.47 21.95-5.86 24.88-24.88 24.88zM914.29 468.07A28.7 28.7 0 1 1 948.68 514l-419 313.65a28.7 28.7 0 0 1-34.37 0L75.53 514a28.7 28.7 0 1 1 34.35-46l40.54 30.3v-533.17a28.69 28.69 0 0 1 57.38 0v576.1l304.65 227.63z"  horiz-adv-x="1024" />

    
    <glyph glyph-name="kucunchaxun" unicode="&#58884;" d="M458.32 567.3H683.7a28.7 28.7 0 0 1 0 57.39H458.32a28.7 28.7 0 1 1 0-57.39zM347.15 596m-35.35 0a35.35 35.35 0 1 1 70.7 0 35.35 35.35 0 1 1-70.7 0ZM429.62 483.57l282.77 0 0-57.39-282.77 0 0 57.39ZM347.15 454.87m-35.35 0a35.35 35.35 0 1 1 70.7 0 35.35 35.35 0 1 1-70.7 0ZM347.15 313.75m-35.35 0a35.35 35.35 0 1 1 70.7 0 35.35 35.35 0 1 1-70.7 0ZM429.62 342.44l185.64 0 0-57.39-185.64 0 0 57.39ZM458.32 201.32a28.7 28.7 0 0 1 0-57.39h31.12a28.7 28.7 0 0 1 0 57.39zM347.15 172.62m-35.35 0a35.35 35.35 0 1 1 70.7 0 35.35 35.35 0 1 1-70.7 0ZM698 271.45a167.5 167.5 0 1 1 167.5-167.5A167.5 167.5 0 0 1 698 271.45zM698-23a126.9 126.9 0 1 0 126.9 126.9A126.9 126.9 0 0 0 698-23zM731 85.24A58.95 58.95 0 1 1 716.75 71L755 32.71A10.09 10.09 0 0 1 769.28 47z m-19.55 7.85a9.69 9.69 0 0 1-2.57-2.57 38.76 38.76 0 1 0 2.57 2.57zM798 832.18H226.2a67.55 67.55 0 0 1-67.55-67.55V4a67.55 67.55 0 0 1 67.55-67.55h268.61a28.7 28.7 0 1 1 0 57.39H242.54A26.49 26.49 0 0 0 216 20.33v728a26.49 26.49 0 0 0 26.49 26.49h539.17a26.49 26.49 0 0 0 26.49-26.49v-435.96a28.7 28.7 0 1 1 57.39 0V764.63A67.55 67.55 0 0 1 798 832.18z"  horiz-adv-x="1024" />

    
    <glyph glyph-name="ruku" unicode="&#58886;" d="M621.67 209.51a55.21 55.21 0 0 1-17-40.91c0.13-19.7 12.42-32.26 20.14-39.9l92.51-102.64q0.53-0.59 1.09-1.14l0.07-0.07c4.51-4.39 13.89-13.53 30.39-13.53 23.42 0 41.09 17.65 41.09 41v39c38.78-4.11 68.62-25.32 94.67-66.6 7.82-14.71 19.41-22.16 34.47-22.16 19.41 0 41 16.86 41 41a24.21 24.21 0 0 1-0.16 2.75c-0.21 1.87-0.42 4.74-0.66 8.06-1.61 22.17-5 68.29-30.26 110.27a164.36 164.36 0 0 1-58.74 57.83c-22.75 13.25-49.74 22-80.45 26.15v31.73c0 11.16-4.9 22.46-13.43 31s-19.83 13.43-31 13.43c-17.09 0-26.72-9.88-30.82-14.1l-0.48-0.51z m31.59-39.92a6.66 6.66 0 0 0 2.15 5q0.74 0.68 1.42 1.43l84.53 92v-41.31a24.28 24.28 0 0 1 22.86-24.24c106.36-6.23 135.4-67.14 144.14-127.22-14.88 18.58-31.06 32.95-49 43.56C832 135 800 142.29 764.44 140.39a24.28 24.28 0 0 1-23-24.24v-44.28l-81 89.86q-0.47 0.53-1 1c-1.69 1.73-5.17 5.16-6.18 6.85zM538.13 40.38h-52.7c-20.49 0-24.89-4.39-24.89-24.88v-54.16c0-20.5 4.39-24.89 24.89-24.89h52.7c20.5 0 24.89 4.39 24.89 24.89v54.15c-1.46 20.51-5.85 24.89-24.89 24.89zM362.48 40.38h-52.7c-20.49 0-24.89-4.39-24.89-24.88v-54.16c0-20.5 4.39-24.89 24.89-24.89h52.7c20.49 0 24.88 4.39 24.88 24.89v54.15c-1.47 20.51-5.86 24.89-24.88 24.89zM362.48 228.1h-52.7c-20.49 0-24.89-4.39-24.89-24.88v-52.7c0-20.49 4.39-24.88 24.89-24.88h52.7c20.49 0 24.88 4.39 24.88 24.88v54.15c-1.47 19.04-5.86 23.43-24.88 23.43zM485.43 405.22c-20.49 0-24.88-4.39-24.88-24.88v-54.16c0-20.5 4.39-24.89 24.88-24.89h52.7c20.49 0 24.88 4.39 24.88 24.89v54.16c-1.46 20.49-5.85 24.88-24.88 24.88zM538.13 228.1h-52.7c-20.49 0-24.89-4.39-24.89-24.88v-52.7c0-20.49 4.39-24.88 24.89-24.88h52.7c20.5 0 24.89 4.39 24.89 24.88v54.15c-1.46 19.04-5.85 23.43-24.89 23.43zM362.48 405.22h-52.7c-20.49 0-24.89-4.39-24.89-24.88v-54.16c0-20.49 4.39-24.88 24.89-24.88h52.7c20.49 0 24.88 4.39 24.88 24.88v54.16c-1.47 21.95-5.86 24.88-24.88 24.88zM914.29 468.07A28.7 28.7 0 1 1 948.68 514l-419 313.65a28.7 28.7 0 0 1-34.37 0L75.53 514a28.7 28.7 0 1 1 34.35-46l40.54 30.3v-533.17a28.69 28.69 0 0 1 57.38 0v576.1l304.65 227.63z"  horiz-adv-x="1024" />

    
    <glyph glyph-name="pandian" unicode="&#58894;" d="M392.88 567.22h225.33a28.69 28.69 0 0 1 28.69 28.69 28.69 28.69 0 0 1-28.69 28.69H392.88a28.69 28.69 0 0 1-28.69-28.69 28.69 28.69 0 0 1 28.69-28.69zM281.73 631.25a35.34 35.34 0 1 1 35.34-35.34 35.34 35.34 0 0 1-35.34 35.34zM392.88 426.11h225.33a28.69 28.69 0 0 1 28.69 28.69 28.69 28.69 0 0 1-28.69 28.69H392.88a28.69 28.69 0 0 1-28.69-28.69 28.69 28.69 0 0 1 28.69-28.69zM281.73 490.14a35.34 35.34 0 1 1 35.34-35.34 35.34 35.34 0 0 1-35.34 35.34zM392.88 285h177.45a28.69 28.69 0 0 1 0 57.39H392.88a28.69 28.69 0 0 1 0-57.39zM281.73 349a35.34 35.34 0 1 1 35.34-35.34A35.34 35.34 0 0 1 281.73 349zM476.85 201.28h-84a28.69 28.69 0 0 1-28.69-28.69 28.69 28.69 0 0 1 28.69-28.69h84a28.69 28.69 0 0 1 28.69 28.69 28.69 28.69 0 0 1-28.69 28.69zM281.73 207.93a35.34 35.34 0 1 1 35.34-35.34 35.34 35.34 0 0 1-35.34 35.34zM916.57 727.61a28.69 28.69 0 0 1-39.19-10.51L800 583V764.51a67.54 67.54 0 0 1-67.54 67.54H160.81a67.54 67.54 0 0 1-67.54-67.54V4a67.54 67.54 0 0 1 67.54-67.54h571.68A67.54 67.54 0 0 1 800 4V468.17l127.09 220.25a28.7 28.7 0 0 1-10.52 39.19zM742.64 20.32a26.49 26.49 0 0 0-26.49-26.49h-539a26.49 26.49 0 0 0-26.49 26.49V748.18a26.49 26.49 0 0 0 26.49 26.49h539a26.49 26.49 0 0 0 26.49-26.49v-264.65L550.5 150.47a28.69 28.69 0 1 1 49.7-28.68L742.64 368.7z"  horiz-adv-x="1024" />

    
    <glyph glyph-name="wuliaohuoweipeizhi" unicode="&#59194;" d="M341.333333 668.444444H227.555556V839.111111H170.666667v-170.666667H56.888889v-227.555555h113.777778v-512h56.888889V440.888889h113.777777V668.444444zM284.444444 497.777778H113.777778V611.555556h170.666666v-113.777778zM796.444444 668.444444V839.111111h-56.888888v-170.666667h-113.777778v-227.555555h113.777778v-512h56.888888V440.888889h113.777778V668.444444h-113.777778z m56.888889-170.666666h-170.666666V611.555556h170.666666v-113.777778zM512 839.111111H455.111111v-512H341.333333v-227.555555h113.777778v-170.666667h56.888889v170.666667h113.777778v227.555555H512V839.111111z m56.888889-568.888889v-113.777778H398.222222v113.777778h170.666667z"  horiz-adv-x="1024" />

    
    <glyph glyph-name="shoufacunchaxun" unicode="&#58947;" d="M359.936 303.10400000000004c-6.656 0-13.312 2.56-17.92 7.68L249.344 403.456c-10.24 10.24-10.24 26.112 0 36.352s26.112 10.24 36.352 0l74.752-74.752 74.24 74.24c9.728 10.24 26.112 10.24 36.352 0 10.24-9.728 10.24-26.112 0-36.352l-92.16-92.672c-5.632-4.608-12.288-7.168-18.944-7.168zM765.44 453.12c-6.656 0-12.8 2.56-17.92 7.68l-74.752 74.24L598.528 460.8c-10.24-10.24-26.112-10.24-36.352 0s-10.24 26.112 0 36.352l92.16 92.16c9.728 9.728 26.112 10.24 36.352 0L783.36 496.64c10.24-9.728 10.24-26.112 0-36.352-4.608-4.608-11.264-7.168-17.92-7.168zM508.416-40.44799999999998c-6.656 0-13.312 2.56-17.92 7.68L349.696 107.51999999999998H29.696c-14.336 0-25.6 11.264-25.6 25.6V783.36c0 14.336 11.264 25.6 25.6 25.6h957.44c14.336 0 25.6-11.264 25.6-25.6v-650.24c0-14.336-11.264-25.6-25.6-25.6h-320l-140.288-140.288c-5.12-5.12-11.776-7.68-18.432-7.68zM55.296 158.72000000000003h305.152c6.656 0 13.312-2.56 17.92-7.68l130.048-130.048 130.048 130.048c4.608 4.608 11.264 7.68 17.92 7.68h305.152V757.76h-906.24v-599.04zM359.936 349.18399999999997c-14.336 0-25.6 11.264-25.6 25.6V614.4c0 14.336 11.264 25.6 25.6 25.6s25.6-11.264 25.6-25.6v-239.616c0-14.336-11.264-25.6-25.6-25.6zM672.768 264.70399999999995c-14.336 0-25.6 11.264-25.6 25.6V529.9200000000001c0 14.336 11.264 25.6 25.6 25.6s25.6-11.264 25.6-25.6v-239.616c0-14.336-11.264-25.6-25.6-25.6z"  horiz-adv-x="1024" />

    
    <glyph glyph-name="cangkuzuoye" unicode="&#58885;" d="M350.3 772.51l-189.19-33.36a67.08 67.08 0 0 1-54.35-77.62l115.14-653a66.85 66.85 0 0 1 65.89-55.38 67.71 67.71 0 0 1 11.73 1l61.66 10.87a45.41 45.41 0 0 0-10.89 29.53zM912.74 819H395.92a45.68 45.68 0 0 1-45.62-45.62v-778.76A45.7 45.7 0 0 1 395.92-51h516.82a5.53 5.53 0 0 1 5.53 5.53V813.47a5.53 5.53 0 0 1-5.53 5.53zM771.79 556h-256V680h256zM515.77 679.97H771.8v-124.02H515.77zM912.74 832H395.92a58.63 58.63 0 0 1-57.72-48.42L158.86 752A80 80 0 0 1 94 659.28l115.14-653a79.92 79.92 0 0 1 92.68-64.89l54.88 9.68A58.4 58.4 0 0 1 395.92-64h516.82a18.53 18.53 0 0 1 18.53 18.53V813.47A18.53 18.53 0 0 1 912.74 832zM297.26-33a54.69 54.69 0 0 0-9.47-0.83 53.87 53.87 0 0 0-53.09 44.64l-115.14 653a54 54 0 0 0 43.8 62.56L337.3 757v-60.5c-33.52-2.39-60-28.61-60-60.51s26.49-58.12 60-60.51v-47c-33.52-2.39-60-28.61-60-60.51s26.49-58.12 60-60.51v-47c-33.52-2.39-60-28.61-60-60.51s26.49-58.12 60-60.51v-47c-33.52-2.39-60-28.61-60-60.51s26.49-58.12 60-60.51v-76.86a58.51 58.51 0 0 1 3.48-19.93z m40 703.39v-68.84c-19.16 2.19-34 16.78-34 34.42s14.88 32.26 34.04 34.45z m0-168v-68.84c-19.16 2.19-34 16.78-34 34.42s14.88 32.26 34.04 34.45z m0-168v-68.83c-19.16 2.19-34 16.78-34 34.42s14.88 32.25 34.04 34.44z m0-168v-68.83c-19.16 2.19-34 16.78-34 34.42s14.88 32.25 34.04 34.44zM905.27-38H395.92a32.66 32.66 0 0 0-32.62 32.62v166.6c10.81-6.18 18-17 18-29.22a31.29 31.29 0 0 0-4.79-16.66 13 13 0 0 1 22.12-13.67 57.69 57.69 0 0 1 8.66 30.33c0 26.61-18.43 49.26-44 57.44V329.22c10.81-6.18 18-17 18-29.22a31.29 31.29 0 0 0-4.79-16.66 13 13 0 0 1 22.12-13.67 57.69 57.69 0 0 1 8.67 30.33c0 26.61-18.43 49.26-44 57.44V497.22c10.81-6.18 18-17 18-29.22a31.28 31.28 0 0 0-4.79-16.66 13 13 0 0 1 22.12-13.67 57.69 57.69 0 0 1 8.67 30.33c0 26.61-18.43 49.26-44 57.44V665.22c10.81-6.18 18-17 18-29.22a31.28 31.28 0 0 0-4.79-16.66 13 13 0 0 1 22.12-13.67 57.69 57.69 0 0 1 8.67 30.33c0 26.61-18.43 49.26-44 57.44v79.94A32.66 32.66 0 0 0 395.92 806h509.35zM506.72 543h274.12a4 4 0 0 1 4 4V689a4 4 0 0 1-4 4H506.72a4 4 0 0 1-4-4v-142.1a4 4 0 0 1 4-3.9z m22 124h230v-98h-230zM732.29 198.19000000000005h-177a13 13 0 1 1 0-26h177a13 13 0 0 1 0 26zM732.29 106.14999999999998h-177a13 13 0 0 1 0-26h177a13 13 0 0 1 0 26z"  horiz-adv-x="1024" />

    
    <glyph glyph-name="jiliangdanwei" unicode="&#58996;" d="M497.152-128H43.008c-14.336 0-25.6 11.264-25.6 25.6V855.04c0 14.336 11.264 25.6 25.6 25.6h454.144c14.336 0 25.6-11.264 25.6-25.6v-957.44c0-14.336-11.264-25.6-25.6-25.6z m-428.544 51.2h402.944V829.44H68.608v-906.24zM240.64 643.072H77.312c-14.336 0-25.6 11.264-25.6 25.6s11.264 25.6 25.6 25.6H240.64c14.336 0 25.6-11.264 25.6-25.6s-11.264-25.6-25.6-25.6zM240.64 252.41600000000005H77.312c-14.336 0-25.6 11.264-25.6 25.6s11.264 25.6 25.6 25.6H240.64c14.336 0 25.6-11.264 25.6-25.6s-11.264-25.6-25.6-25.6zM351.232 447.488H77.312c-14.336 0-25.6 11.264-25.6 25.6s11.264 25.6 25.6 25.6h273.92c14.336 0 25.6-11.264 25.6-25.6s-11.264-25.6-25.6-25.6zM351.232 56.32000000000005H77.312c-14.336 0-25.6 11.264-25.6 25.6s11.264 25.6 25.6 25.6h273.92c14.336 0 25.6-11.264 25.6-25.6s-11.264-25.6-25.6-25.6zM729.6-128c-7.68 0-14.848 3.584-19.968 9.728l-125.44 155.136c-3.584 4.608-5.632 10.24-5.632 15.872V645.12c0 14.336 11.264 25.6 25.6 25.6h250.88c14.336 0 25.6-11.264 25.6-25.6v-592.384c0-5.632-2.048-11.776-5.632-15.872l-125.44-155.136c-5.12-6.144-12.288-9.728-19.968-9.728zM629.76 61.952l99.84-123.392 99.84 123.392V619.52h-199.68v-557.568zM855.04 505.344h-250.88c-14.336 0-25.6 11.264-25.6 25.6s11.264 25.6 25.6 25.6h250.88c14.336 0 25.6-11.264 25.6-25.6s-11.264-25.6-25.6-25.6zM846.336 47.615999999999985h-240.64c-14.336 0-25.6 11.264-25.6 25.6s11.264 25.6 25.6 25.6h240.64c14.336 0 25.6-11.264 25.6-25.6s-11.264-25.6-25.6-25.6z"  horiz-adv-x="1030" />

    
    <glyph glyph-name="yonghuguanli" unicode="&#58927;" d="M352 384A224 224 0 1 0 576 608 224 224 0 0 0 352 384z m0 384A160 160 0 1 1 512 608 160 160 0 0 1 352 768zM800 448A160 160 0 1 0 960 608 160 160 0 0 0 800 448z m0 256A96 96 0 1 1 896 608 96 96 0 0 1 800 704zM672-64a32 32 0 0 0-32 32 288 288 0 0 1-576 0 32 32 0 0 0-32-32 32 32 0 0 0-32 32 352 352 0 0 0 704 0 32 32 0 0 0-32-32zM672-64H32a32 32 0 0 0 0 64h640a32 32 0 0 0 0-64zM992 64h-192a32 32 0 0 0 0 64H960v32A160 160 0 0 1 800 320a154.24 154.24 0 0 1-88.32-26.88 32 32 0 0 0-35.84 53.76A225.92 225.92 0 0 0 800 384a224 224 0 0 0 224-224v-64a32 32 0 0 0-32-32z"  horiz-adv-x="1024" />

    
    <glyph glyph-name="kucuntongji" unicode="&#58954;" d="M168 256a40 40 0 0 1-40-40v-240a40 40 0 0 1 80 0V216a40 40 0 0 1-40 40z m229.33 256a40 40 0 0 1-40-40v-496a40 40 0 0 1 80 0V472a40 40 0 0 1-40 40zM856 512a40 40 0 0 1-40-40v-496a40 40 0 0 1 80 0V472a40 40 0 0 1-40 40zM626.67 320a40 40 0 0 1-40-40v-304a40 40 0 0 1 40-40 40 40 0 0 1 40 40V280a40 40 0 0 1-40 40zM920.33 832H776a40 40 0 0 1 0-80h47.5L631.14 561.89l-194.95 195a39.49 39.49 0 0 1-54.51 1.27q-0.82-0.74-1.62-1.53L75.72 452.24a39.85 39.85 0 0 1 56.36-56.36l276.17 276.18L600.34 480c0.69-0.82 1.4-1.61 2.16-2.38a39.59 39.59 0 0 1 20.82-11.12l0.54-0.09 1.16-0.2a39.42 39.42 0 0 1 33.18 10.5l0.61 0.58L880.33 696.1V648a40 40 0 0 1 80 0V792a40 40 0 0 1-40 40z"  horiz-adv-x="1024" />

    
    <glyph glyph-name="kucunxinxichaxun" unicode="&#58891;" d="M926.5 268.20000000000005V640.6c0 0.1 0.1 0.3 0.1 0.4 0 15.9-11.6 28.6-26.6 31.6l-1.3 1.6-389.4 117.2-1.1-0.1c-6.3 2.1-13.1 3.3-20.1 3.3-11.9 0-22.9-3.4-32.4-9.1l-0.6-0.1-325.2-169.7c-3-1.2-5.8-2.7-8.4-4.4l-1.2-0.6-0.2-0.3c-13.1-9-21.8-23.7-22.6-40.6l-0.4-0.7V173l0.8-1c2.6-24.6 19.4-44.7 42.1-52.1l0.5-0.7 445.6-148 1.6 0.3c6.2-2.2 12.7-3.8 19.6-3.8 16 0 30.3 6.6 40.7 17l0.5 0.1L899.1 203l0.6 1.1c13.6 13.2 22.7 30.7 25.6 50.4l1.2 2.3v9.4c0 0.3 0.1 0.6 0.1 1s-0.1 0.7-0.1 1zM482.8 764l383.8-111-111.1-71.3-397 118.5L482.8 764z m111.7-751.1L133.9 165.20000000000005v413l460.7-133v-432.3z m10.2 472L171.5 604 321 680.9l401-120.7-117.3-75.3z m284.4-234L631.3 17.700000000000045V454.4l257.8 165.1v-368.6zM269.8 394.7l165-49.3c9.7-2.6 19.6 3.1 22.2 12.8 2.6 9.7-3.1 19.6-12.8 22.2l-165 49.3c-9.7 2.6-19.6-3.1-22.2-12.8-2.6-9.7 3.1-19.6 12.8-22.2z"  horiz-adv-x="1024" />

    
    <glyph glyph-name="shebeiguanli" unicode="&#58887;" d="M937.6 720l-153.6-153.6-89.6 89.6L800 761.6l48 48C736 880 588.8 867.2 489.6 771.2c-70.4-70.4-96-169.6-80-259.2l-352-352c-25.6-25.6-25.6-64 0-89.6L192-64c25.6-25.6 64-25.6 89.6 0l352 352c89.6-19.2 188.8 9.6 259.2 80 102.4 92.8 115.2 240 44.8 352z m-86.4-313.6c-64-64-153.6-80-233.6-51.2L243.2-22.4l-134.4 134.4 377.6 377.6c-28.8 80-9.6 169.6 51.2 233.6 54.4 54.4 128 73.6 198.4 60.8l-83.2-83.2L608 656l182.4-182.4 131.2 131.2c6.4-70.4-16-144-70.4-198.4z"  horiz-adv-x="1024" />

    
    <glyph glyph-name="pandiantongji" unicode="&#58916;" d="M861.008 188l-57.6 15.376A369.6 369.6 0 0 0 96 353.744a374.512 374.512 0 0 0 335.072 367.6L431.76 800h46.752C694.048 800 912 610.8 912 377.424a365.248 365.248 0 0 0-50.992-189.424z m-433.504 116.576l3.2 365.2c-155.2-22.4-283.632-155.632-283.632-316.032A318.752 318.752 0 0 1 465.76 34.99199999999996c118.896 0 242.688 73.248 285.824 182.192l-273.088 72.816z m50.992 444.416v-408l345.6-92.144a250.88 250.88 0 0 1 34.112 128.576C858.16 578.608 664.32 748.992 478.496 748.992z"  horiz-adv-x="1024" />

    
    <glyph glyph-name="daohang" unicode="&#58939;" d="M913.6 760.8H380.2c-26.7 0-44.4-17.8-44.4-44.4V672c0-26.7 17.8-44.4 44.4-44.4h533.3c26.7 0 44.4 17.8 44.4 44.4v44.4c0.1 26.6-17.7 44.4-44.3 44.4zM158 760.8h-44.4c-22.2 0-44.4-22.2-44.4-44.4V672c0-22.2 22.2-44.4 44.4-44.4H158c22.2 0 44.4 22.2 44.4 44.4v44.4c0.1 22.2-22.1 44.4-44.4 44.4zM158 449.7h-44.4c-22.2 0-44.4-22.2-44.4-44.4v-44.4c0-22.2 22.2-44.4 44.4-44.4H158c22.2 0 44.4 22.2 44.4 44.4v44.4c0.1 22.2-22.1 44.4-44.4 44.4zM913.6 449.7H380.2c-26.7 0-44.4-17.8-44.4-44.4v-44.4c0-26.7 17.8-44.4 44.4-44.4h533.3c26.7 0 44.4 17.8 44.4 44.4v44.4c0.1 26.6-17.7 44.4-44.3 44.4zM158 138.6h-44.4c-22.2 0-44.4-22.2-44.4-44.4v-44.4c0-22.2 22.2-44.4 44.4-44.4H158c22.2 0 44.4 22.2 44.4 44.4v44.4c0.1 22.2-22.1 44.4-44.4 44.4zM913.6 138.6H380.2c-26.7 0-44.4-17.8-44.4-44.4v-44.4c0-26.7 17.8-44.4 44.4-44.4h533.3c26.7 0 44.4 17.8 44.4 44.4v44.4c0.1 26.6-17.7 44.4-44.3 44.4z"  horiz-adv-x="1024" />

    
    <glyph glyph-name="appicons" unicode="&#58912;" d="M294.9632 117.04319999999996H227.7888a142.5408 142.5408 0 0 0-95.8976 44.0832 145.4592 145.4592 0 0 0-40.0896 101.5296 149.0944 149.0944 0 0 0 40.6016 103.168 138.5984 138.5984 0 0 0 87.3472 43.008l59.7504 6.2464 14.0288 61.44a244.5312 244.5312 0 0 0 74.8032 129.8944 227.5328 227.5328 0 0 0 359.8848-77.1584l20.0704-43.008 46.08-4.6592a177.8688 177.8688 0 0 0 109.9264-54.9376 179.8656 179.8656 0 0 0 28.16-39.3728 34.5088 34.5088 0 0 1 30.72-19.2h1.9968c25.9072-1.2288 43.4688 27.2384 31.3856 51.6608a253.0816 253.0816 0 0 1-43.1616 62.72 249.344 249.344 0 0 1-157.5936 78.7968 301.6704 301.6704 0 0 1-477.0816 103.1168A330.5984 330.5984 0 0 1 219.2896 491.52a215.04 215.04 0 0 1-134.4-66.56 231.5776 231.5776 0 0 1-1.1264-317.44 211.456 211.456 0 0 1 147.5072-67.8912c0.9728 0 2.9696-0.5632 4.096-0.5632h60.16a37.7344 37.7344 0 0 1 37.2736 39.0656 38.1952 38.1952 0 0 1-37.8368 38.912z m675.84 208.2816a34.7648 34.7648 0 1 1 33.6384-34.7136 34.2016 34.2016 0 0 1-33.536 34.7136z m-17.5616-112.64a39.6288 39.6288 0 0 1-31.6416-17.152 206.2336 206.2336 0 0 0-20.48-25.6 171.7248 171.7248 0 0 0-124.416-52.8896h-49.2544a39.8336 39.8336 0 0 1-39.0656-40.3968 36.5568 36.5568 0 0 1 36.1472-37.3248h46.6432a250.2656 250.2656 0 0 1 211.2512 117.1968 35.84 35.84 0 0 1-29.0816 56.32z m-249.856 99.072L545.9456 474.624a30.72 30.72 0 0 1-44.6976 0l-157.4912-162.7136a33.024 33.024 0 0 1 0-46.08 30.72 30.72 0 0 1 44.6976 0l103.936 107.52v-312.32a31.6416 31.6416 0 1 1 63.232 0v312.32l103.936-107.52a30.72 30.72 0 0 1 44.1344 0 33.1264 33.1264 0 0 1-0.2048 46.08z"  horiz-adv-x="1024" />

    
    <glyph glyph-name="wuliaoxinxi" unicode="&#58914;" d="M512-57.06024100000002a202.255422 202.255422 0 0 0-143.946024 59.620241c-79.375422 79.375422-79.375422 208.516627 0 287.876627a203.566265 203.566265 0 0 0 287.892048 0A203.566265 203.566265 0 0 0 512-57.06024100000002z m0 391.710843a188.144578 188.144578 0 1 1 133.042892-55.101686A186.88 186.88 0 0 1 512 334.65060200000005z m0-361.114216a171.735904 171.735904 0 0 0-96.90988 29.671325 7.710843 7.710843 0 0 0-1.125783 11.828434l229.474699 229.474698a7.710843 7.710843 0 0 0 11.843856-1.125783 173.17012 173.17012 0 0 0-20.973494-219.173012A171.828434 171.828434 0 0 0 512-26.448192999999947z m-80.331566 37.413012a157.563373 157.563373 0 0 1 215.903614 215.903614zM375.086265 46.26505999999995h-0.724819a7.710843 7.710843 0 0 0-5.659759 3.346506 173.031325 173.031325 0 0 0 20.988915 219.203856 173.031325 173.031325 0 0 0 219.219278 21.004337 7.710843 7.710843 0 0 0 1.125783-11.828434L380.53012 48.48578299999997a7.710843 7.710843 0 0 0-5.443855-2.220723zM512 304.05397600000003a156.514699 156.514699 0 0 1-111.406265-46.141687 157.671325 157.671325 0 0 1-24.181205-191.722409l215.903615 215.903614A156.560964 156.560964 0 0 1 512 304.05397600000003zM539.759036 880.578313v-200.481927h-55.518072V880.578313h55.518072m3.084337 15.421687h-61.686746a12.337349 12.337349 0 0 1-12.33735-12.337349v-218.987952h86.361446V883.662651a12.337349 12.337349 0 0 1-12.33735 12.337349zM439.518072 687.807229h38.446265v-15.421687H439.518072zM546.436627 687.807229h38.446265v-15.421687h-38.446265zM330.24 687.807229h39.263614v-15.421687h-39.263614zM647.710843 820.433735v-200.481928h-55.518072V820.433735h55.518072m3.084338 15.421687h-61.686747a12.337349 12.337349 0 0 1-12.33735-12.33735v-218.987952h86.361446V823.518072a12.337349 12.337349 0 0 1-12.337349 12.33735zM655.421687 687.807229h37.012048v-15.421687h-37.012048zM763.373494 687.807229v-15.421687h109.493976v-784.963855H151.13253V672.385542h109.493976v15.421687H135.710843v-815.807229h752.578314V687.807229h-124.915663zM700.144578 544.385542V730.987952h55.518073v-186.60241h15.421686V734.072289a12.337349 12.337349 0 0 1-12.337349 12.33735h-61.686747a12.337349 12.337349 0 0 1-12.337349-12.33735v-189.686747zM592.192771 544.385542v29.301205h55.518072v-29.301205h15.421687v44.722892h-86.361446v-44.722892h15.421687zM580.996627 428.722892a12.337349 12.337349 0 0 1 8.127228-3.084338h61.686747a12.337349 12.337349 0 0 1 8.127229 3.084338zM484.240964 539.7590359999999v92.530121h55.518072v-92.530121h15.421687v107.951807h-86.361446v-107.951807h15.421687zM376.289157 544.385542V730.987952h55.518072v-186.60241h15.421687V734.072289a12.337349 12.337349 0 0 1-12.33735 12.33735h-61.686747a12.337349 12.337349 0 0 1-12.337349-12.33735v-189.686747zM268.337349 544.385542V730.987952h55.518073v-186.60241h15.421686V734.072289a12.337349 12.337349 0 0 1-12.337349 12.33735H265.253012a12.337349 12.337349 0 0 1-12.337349-12.33735v-189.686747zM849.73494 687.807229h15.421687V808.0963859999999H655.421687v-15.421687h194.313253v-104.86747zM872.86747 680.0963859999999v-243.662651H151.13253V680.0963859999999h46.403856l31.120963-131.546988A15.421687 15.421687 0 0 1 243.662651 536.6746989999999h539.759036a15.421687 15.421687 0 0 1 15.005301 11.874699l31.120964 131.546988H872.86747m15.421687 15.421686h-70.939759l-33.927711-143.421686H243.662651l-33.927711 143.421686H135.710843v-274.506024h752.578314V695.518072zM475.404337 808.0963859999999H158.843373v-120.289157h15.421687V792.674699h301.139277V808.0963859999999zM546.853012 808.0963859999999H584.481928v-15.421687h-37.628916z"  horiz-adv-x="1024" />

    
    <glyph glyph-name="buhegepinchulijilu" unicode="&#58982;" d="M204.8 623.104C204.8 660.718933 235.281067 691.2 272.896 691.2h478.208C788.718933 691.2 819.2 660.718933 819.2 623.104v-478.208A68.096 68.096 0 0 0 751.104 76.79999999999995H272.896A68.096 68.096 0 0 0 204.8 144.89599999999996V623.104zM512 145.06666700000005a238.933333 238.933333 0 1 1 0 477.866666 238.933333 238.933333 0 0 1 0-477.866666zM562.414933 384l75.707734 75.741867a35.805867 35.805867 0 0 1-0.1024 50.2784 35.498667 35.498667 0 0 1-50.2784 0.1024L512 434.414933l-75.741867 75.707734a35.805867 35.805867 0 0 1-50.2784-0.1024 35.498667 35.498667 0 0 1-0.1024-50.2784L461.585067 384l-75.707734-75.741867a35.805867 35.805867 0 0 1 0.1024-50.2784c13.994667-13.994667 36.420267-13.994667 50.2784-0.1024L512 333.585067l75.741867-75.707734a35.805867 35.805867 0 0 1 50.2784 0.1024c13.994667 13.994667 13.994667 36.420267 0.1024 50.2784L562.414933 384z"  horiz-adv-x="1024" />

    
    <glyph glyph-name="huoweixinxitongji" unicode="&#58898;" d="M959.1 339.6c0 0.3 0.1 0.6 0.1 0.9 0 24.8-20.1 44.9-44.9 44.9H513.2v401c0 24.8-20.1 44.9-44.9 44.9-1.7 0-3.2-0.3-4.8-0.5l-0.1 1C235.7 806.6 64 614.7 64 385.4c0-247.7 201.5-449.2 449.2-449.2 231.4 0 423.5 173.4 446.8 403.3l-0.9 0.1ZM513.2 26C315 26 153.8 187.20000000000005 153.8 385.4c0 166.3 112.9 307.6 269.5 347.7v-392.6c0-24.8 20.1-44.9 44.9-44.9h392.6C820.9 138.79999999999995 679.9 26 513.2 26ZM628 464.2h285.3c21.1 0 38.6 14.6 43.5 34.2l0.8-0.1c0.3 3.2 0.3 6.6 0.5 9.9 0 0.3 0.1 0.6 0.1 1v0.3c0.4 6.6 1 13.1 1 19.8 0 166.8-135.7 302.6-302.6 302.6-11.2 0-22.5-0.6-33.6-1.8v-0.2c-22.5-2.5-40-21.3-40-44.4v-265.9c0-1.8 0.3-3.4 0.5-5.1-0.2-1.7-0.5-3.4-0.5-5.1 0.1-25.1 20.2-45.2 45-45.2Zm44.9 276.9C774.3 733.4 856 654.3 867.8 554H672.9V741.1Z"  horiz-adv-x="1024" />

    
    <glyph glyph-name="banbenguanli" unicode="&#58904;" d="M853 520.3c-19.5 45.8-47.1 86.6-82.2 121.8s-76 62.8-121.8 82.2c-47.1 20.1-97.3 30.1-148.8 30.1-51.5 0-101.7-10-148.8-30.1-45.8-19.5-86.6-47.1-121.8-82.2s-62.8-76.6-81.6-121.8c-20.1-47.1-30.1-97.9-30.1-149.4 0-52.1 10-102.3 30.1-149.4 18.8-45.8 46.5-87.3 81.6-122.4 35.2-35.2 76-62.8 121.8-82.2 47.1-20.1 97.3-30.1 148.8-30.1 52.1 0 101.7 10.7 148.8 30.8 45.8 19.5 86.6 47.1 121.8 82.2 35.2 35.2 62.8 76 82.2 121.8 20.1 47.1 30.1 97.9 30.1 149.4 0 52-10 102.2-30.1 149.3z m-352.2-496c-190.9 0-345.9 155.7-345.9 346.6 0 190.9 155.1 346.6 345.3 346.6 190.9 0 346.6-155.7 346.6-346.6-0.1-190.9-155.1-346.6-346-346.6zM669.7 341.4c-5 0-9.4-1.9-13.2-5.7L519 198.20000000000005V586.9c0 10.7-8.8 18.8-18.8 18.8-10.7 0-18.8-8.8-18.8-18.8v-388.6L344.5 335.70000000000005c-3.8 3.8-8.2 5.7-13.2 5.7s-9.4-1.9-13.2-5.7c-7.5-7.5-7.5-18.8 0-26.4L484.5 143c1.2-1.3 1.9-1.9 3.1-2.5 3.1-3.1 8.2-5 12.6-5s8.8 1.9 13.2 5c1.3 0.6 1.9 1.3 3.1 2.5l166.4 166.4c7.5 7.5 7.5 18.8 0 26.4-3.8 3.7-8.2 5.6-13.2 5.6z"  horiz-adv-x="1024" />

    
    <glyph glyph-name="baozhuang" unicode="&#58881;" d="M905.6 659.4L522.1 830.2c-6.2 2.8-13.2 2.8-19.4 0.1L118.3 661.4c-8.7-3.8-14.3-12.5-14.3-22v-511.2c0-9.6 5.7-18.2 14.4-22L502.6-61c3.1-1.3 6.3-2 9.6-2s6.5 0.7 9.6 2l383.7 167.2c8.8 3.8 14.4 12.5 14.4 22V637.4c-0.1 9.5-5.6 18.1-14.3 22zM514.7 781l322.9-143.8-130.8-66.5L393.7 730l116.1 51c1.6 0.7 3.3 0.6 4.9 0z m-2.6-309.3L184 637.8 337 705l316.8-161.3-141.7-72zM151.9 600.3L488.2 430v-432.4L155.5 142.4c-2.2 1-3.6 3.1-3.6 5.5V600.3z m384.3-602.6V430.1l335.7 170.7v-452.9c0-2.4-1.4-4.5-3.6-5.5L536.2-2.3z"  horiz-adv-x="1024" />

    


  </font>
</defs>
</svg>
